<svg xmlns="http://www.w3.org/2000/svg">
    <symbol id="sneaker" viewBox="0 0 63.516 40.284">
        <g transform="translate(-171.772 -54.137)">
            <path fill="#e54f49" stroke="#e54f49" d="M233.07 90.866a6.779 6.779 0 0 1-1.882.584 17.885 17.885 0 0 1-1.945.233 34.816 34.816 0 0 1-3.917.008 54 54 0 0 1-7.81-.984 46.36 46.36 0 0 1-7.667-2.215l-1.854-.753c-.612-.254-1.234-.476-1.85-.716a85.802 85.802 0 0 0-3.738-1.282c-5.011-1.629-10.16-2.559-15.249-4.143a50.137 50.137 0 0 1-7.488-3 34.478 34.478 0 0 1-3.558-2.027 17.871 17.871 0 0 1-1.674-1.245 8.349 8.349 0 0 1-.769-.739 3.313 3.313 0 0 1-.612-.92l.126-.068a2.943 2.943 0 0 0 .672.748 7.934 7.934 0 0 0 .809.6 18.653 18.653 0 0 0 1.734.994c1.181.61 2.4 1.138 3.619 1.635s2.459.953 3.705 1.365 2.491.807 3.753 1.139c1.261.353 2.533.675 3.8 1.015l3.817 1.047c2.543.738 5.087 1.509 7.6 2.4 1.26.436 2.51.914 3.754 1.411.619.261 1.242.5 1.856.78l1.832.806a45.941 45.941 0 0 0 7.489 2.4 53.759 53.759 0 0 0 7.71 1.273 34.513 34.513 0 0 0 3.882.143 17.71 17.71 0 0 0 1.928-.143 6.547 6.547 0 0 0 1.857-.484z"/>
            <path fill="000" d="M206.17 56.223c.837.492 2.131-.1 3.987 2.685 2.293 3.446 9 12.7 10.981 15.43s10.63 6.391 12.428 7.556 2.922 5.12-.447 6.282-15.516-.492-23.573-4.168-15.33-5.319-21.577-7.348-12.523-5.263-13.153-6.937 2.9-2.478 3.293-4.538 4.858-7.1 5.556-8.93.534-2.424 2.023-1.976a.2.2 0 0 0 .213-.058c2.168.457 2.537 4.585 7.48 6.19 5.068 1.646 12.46.108 13.966-.383s-1.963-2.042-1.2-3.756z"/>
            <path fill="000" d="M230.868 93.542a7.018 7.018 0 0 1-1.865.564c-.637.114-1.28.185-1.924.235a36.72 36.72 0 0 1-3.869.052 57.451 57.451 0 0 1-7.7-.805 47.838 47.838 0 0 1-7.54-1.924l-1.821-.653c-.6-.216-1.214-.411-1.82-.618a93.107 93.107 0 0 0-3.682-1.1c-4.933-1.4-10.007-2.171-15.015-3.54a51.727 51.727 0 0 1-7.358-2.621 34.57 34.57 0 0 1-3.494-1.781 17.591 17.591 0 0 1-1.643-1.1 4.589 4.589 0 0 1-1.364-1.467l.121-.067a2.815 2.815 0 0 0 .669.66 8 8 0 0 0 .8.523 19.1 19.1 0 0 0 1.705.87c1.161.534 2.357.993 3.56 1.427s2.418.829 3.644 1.186 2.452.7 3.692.986c1.242.3 2.494.579 3.745.87l3.757.9c2.5.634 5.006 1.294 7.482 2.061 1.24.375 2.47.791 3.694 1.217.609.226 1.221.441 1.826.676l1.8.7a47.181 47.181 0 0 0 7.364 2.1 57.01 57.01 0 0 0 7.6 1.067 36.575 36.575 0 0 0 3.832.085 19.27 19.27 0 0 0 1.907-.154 6.828 6.828 0 0 0 1.838-.471z"/>
        </g>
    </symbol>
    <symbol id="title" viewBox="0 0 177.038 37.032">
        <g transform="translate(-272.814 -52.824)">
            <path fill="#231f20" stroke="#231f20" d="M274.479 89.314q-1.341 0-1.081-1.277l4.8-22.588a1.463 1.463 0 0 1 1.6-1.277q1.341 0 1.082 1.277l-4.8 22.588a1.462 1.462 0 0 1-1.601 1.277z" class="cls-1" data-name="Path 4"/>
            <path fill="#231f20" stroke="#231f20" d="M303.018 89.314a1.21 1.21 0 0 1-.995-.5l-15.059-19.99-4.09 19.213a1.462 1.462 0 0 1-1.6 1.277q-1.341 0-1.082-1.277l4.782-22.524a1.5 1.5 0 0 1 1.558-1.363 1.174 1.174 0 0 1 .974.52l15.059 19.992 4.089-19.235a1.492 1.492 0 0 1 1.623-1.277q1.341 0 1.06 1.277l-4.782 22.524a1.472 1.472 0 0 1-1.537 1.363z"/>
            <path fill="#231f20" stroke="#231f20" d="M326.386 89.314h-16.66q-1.343 0-1.082-1.277a1.491 1.491 0 0 1 1.622-1.276h16.661a5.024 5.024 0 0 0 2.618-.736 3.194 3.194 0 0 0 1.623-2.1l.67-3.072a2.007 2.007 0 0 0-.757-2.1 3.619 3.619 0 0 0-2.315-.736h-11.684a5.479 5.479 0 0 1-4.024-1.493 3.972 3.972 0 0 1-1.125-3.916l.649-3.05a6.3 6.3 0 0 1 2.791-3.917 8.049 8.049 0 0 1 4.652-1.471h11.683q1.342 0 1.082 1.277a1.491 1.491 0 0 1-1.622 1.276h-11.684a4.99 4.99 0 0 0-2.6.736 3.257 3.257 0 0 0-1.622 2.1l-.649 3.05a1.986 1.986 0 0 0 .735 2.1 3.514 3.514 0 0 0 2.294.757h11.683a5.6 5.6 0 0 1 4.046 1.472 3.951 3.951 0 0 1 1.147 3.916l-.671 3.072a6.261 6.261 0 0 1-2.856 3.96 8.218 8.218 0 0 1-4.605 1.428z"/>
            <path fill="#231f20" stroke="#231f20" d="M354.838 89.314h-11.684a5.605 5.605 0 0 1-4.046-1.472 3.954 3.954 0 0 1-1.147-3.916l3.051-14.345a6.341 6.341 0 0 1 2.791-3.916 8.072 8.072 0 0 1 4.674-1.493h11.684a5.633 5.633 0 0 1 4.067 1.493 3.893 3.893 0 0 1 1.126 3.916L362.3 83.926a6.264 6.264 0 0 1-2.856 3.96 8.224 8.224 0 0 1-4.606 1.428zm7.833-19.733a2.012 2.012 0 0 0-.736-2.12 3.613 3.613 0 0 0-2.315-.736h-11.684a4.817 4.817 0 0 0-2.6.757 3.273 3.273 0 0 0-1.645 2.1l-3.051 14.345a2.025 2.025 0 0 0 .758 2.1 3.579 3.579 0 0 0 2.293.736h11.684a5.024 5.024 0 0 0 2.625-.738 3.191 3.191 0 0 0 1.623-2.1z"/>
            <path fill="#231f20" stroke="#231f20" d="M388.289 89.314h-16.682a5.6 5.6 0 0 1-4.046-1.472 3.95 3.95 0 0 1-1.147-3.916l3.938-18.477a1.462 1.462 0 0 1 1.6-1.277q1.341 0 1.082 1.277L369.1 83.926a2.025 2.025 0 0 0 .757 2.1 3.579 3.579 0 0 0 2.293.736h16.682q1.341 0 1.061 1.276a1.462 1.462 0 0 1-1.604 1.276z"/>
            <path fill="#231f20" stroke="#231f20" d="M411.548 89.314h-17.807q-1.342 0-1.082-1.277l4.8-22.588a1.463 1.463 0 0 1 1.6-1.277h16.661q1.341 0 1.082 1.277a1.492 1.492 0 0 1-1.623 1.276h-15.315l-1.19 5.691h15.319q1.341 0 1.06 1.276a1.457 1.457 0 0 1-1.6 1.255h-15.32l-2.51 11.814h16.466q1.341 0 1.06 1.276a1.462 1.462 0 0 1-1.601 1.277z"/>
            <path fill="#f14942" stroke="#f14942" d="M441.267 89.314a1.492 1.492 0 0 1-1.422-.8l-7.6-14.806-13.913 14.802a2.286 2.286 0 0 1-1.731.8q-1.977 0-1.607-1.824a2.288 2.288 0 0 1 .587-1.051l14.992-15.945-7.326-14.249a1.757 1.757 0 0 1-.155-1.051 2.168 2.168 0 0 1 2.38-1.824 1.426 1.426 0 0 1 1.391.8l6.737 13.109 12.3-13.105a2.382 2.382 0 0 1 1.761-.8q1.979 0 1.577 1.824a2.283 2.283 0 0 1-.587 1.051l-13.38 14.245 8.191 15.949a1.757 1.757 0 0 1 .154 1.051 2.125 2.125 0 0 1-2.349 1.824z"/>
        </g>
    </symbol>
    <symbol id="time" viewBox="0 0 112.879 93.542">
        <g transform="translate(-207.921 -2384.525)">
            <path fill="#ed1c24" stroke="#f1f2f2" d="M208.421 2425.9a2.5 2.5 0 0 1 1.877-1.851 1.9 1.9 0 0 1 1.791.472q1.465 1.355 2.907 2.736c.688.656 1.349 1.341 2.054 1.978a4.265 4.265 0 0 0 .86.477 4.952 4.952 0 0 0 .311-.991c.132-1.286.175-2.581.335-3.862a42.245 42.245 0 0 1 3.417-11.893 46.01 46.01 0 0 1 24.765-24.389 43.514 43.514 0 0 1 14.563-3.46 5.28 5.28 0 0 0 .556-.093h4.11c1.133.109 2.267.21 3.4.329a44.778 44.778 0 0 1 20.81 7.647 45.9 45.9 0 0 1 17.072 21.1 9.361 9.361 0 0 1 .616 2.181 2.24 2.24 0 0 1-1.592 2.3 2.29 2.29 0 0 1-2.562-.75 6.886 6.886 0 0 1-.767-1.456 40.418 40.418 0 0 0-10.28-15.167 41.632 41.632 0 0 0-23-10.951 39.413 39.413 0 0 0-11.151.115 40.547 40.547 0 0 0-25.753 14.251 41.025 41.025 0 0 0-9.344 20.734c-.22 1.445-.272 2.915-.4 4.373-.01.11 0 .221 0 .462.219-.206.362-.339.5-.475 1.725-1.663 3.456-3.321 5.173-4.994a2.122 2.122 0 0 1 2.6-.489 2.3 2.3 0 0 1 1.31 2.341 2.127 2.127 0 0 1-.482 1.226 61.805 61.805 0 0 1-3.009 3.2 407.024 407.024 0 0 1-6.626 6.448c-1.591 1.506-2.233 1.522-3.875.042-1.694-1.528-3.317-3.137-4.947-4.734s-3.205-3.2-4.809-4.8a5.424 5.424 0 0 0-.432-.351z"/>
            <path fill="#ed1c24" stroke="#f1f2f2" d="M305.53 2432.383c-1.383 1.414-2.756 2.837-4.155 4.236a15.994 15.994 0 0 1-1.668 1.469 2.138 2.138 0 0 1-2.9-.208 2.3 2.3 0 0 1-.211-3.061c1.456-1.6 2.96-3.17 4.487-4.708 1.782-1.8 3.6-3.558 5.425-5.31a2.128 2.128 0 0 1 3.251-.092c1.943 1.793 3.824 3.653 5.7 5.515 1.363 1.353 2.677 2.757 4.017 4.134a2.4 2.4 0 0 1 .745 2.421 2.252 2.252 0 0 1-3.667 1.23c-1.426-1.4-2.877-2.772-4.322-4.151a9.777 9.777 0 0 0-.907-.781c-.156-.116-.448-.264-.543-.2a.842.842 0 0 0-.262.573c-.1 1.1-.117 2.2-.244 3.3a45 45 0 0 1-10.317 24.014 46.008 46.008 0 0 1-24.04 15.312 42.422 42.422 0 0 1-16.011 1.21c-15.4-1.792-27.208-9.336-35.357-22.534a37.281 37.281 0 0 1-3.619-7.853 2.244 2.244 0 0 1 1.3-2.809 2.141 2.141 0 0 1 2.812.755 12.583 12.583 0 0 1 1.049 2.079 41.417 41.417 0 0 0 13.27 17.251 39.892 39.892 0 0 0 20.869 8.274 41.368 41.368 0 0 0 43.309-27.907 37.447 37.447 0 0 0 2.156-11.5v-.554z"/>
            <path fill="#ed1c24" stroke="#f1f2f2" d="M266.881 2414q0 7.848-.009 15.7a1.222 1.222 0 0 0 .39.946q6.144 6.205 12.265 12.432c.505.515.955 1.085 1.434 1.626a1.734 1.734 0 0 1 .209 2.116 3.41 3.41 0 0 1-.907 1.069 1.843 1.843 0 0 1-2.588-.089c-1.306-1.163-2.6-2.34-3.841-3.577-3.523-3.525-6.989-7.106-10.529-10.614a4.3 4.3 0 0 1-1.352-3.285q.042-16.236.03-32.472a2.8 2.8 0 0 1 .791-2.4 2.242 2.242 0 0 1 2.213-.554 1.922 1.922 0 0 1 1.6 1.769c.073 1.176.213 2.351.22 3.527.026 4.6.011 9.207.011 13.81z"/>
        </g>
    </symbol>
    <symbol id="foot" viewBox="0 0 99.496 101.099">
        <g transform="translate(-217.807 -2639.712)">
            <path fill="#ed1c24" d="M220.807 2692.53c.151-1 .27-2 .459-3a41.422 41.422 0 0 1 3.153-9.336 43.042 43.042 0 0 0 2.981-8.117 41.031 41.031 0 0 0 .972-9.058c.023-6.952.009-13.9.017-20.856a3.437 3.437 0 0 1 .1-1 1.769 1.769 0 0 1 1.989-1.206 1.8 1.8 0 0 1 1.513 1.665c.005.067.008.135.008.2q-.006 10.962-.018 21.922a40.356 40.356 0 0 1-4.113 17.668 34.811 34.811 0 0 0-3.16 9.539 14.547 14.547 0 0 0 .094 6.043c.965 3.742 3.573 5.75 7.165 6.683a3.64 3.64 0 0 0 .9.1q36.18.006 72.362 0a13.765 13.765 0 0 0 7.568-1.909 7.416 7.416 0 0 0 3.791-6.781 6.722 6.722 0 0 0-.476-1.894 1.01 1.01 0 0 0-1.071-.668 94.916 94.916 0 0 1-15.821-1.626 50.907 50.907 0 0 1-10.648-3.55 89.968 89.968 0 0 1-20.568-12.184 43.9 43.9 0 0 1-6.775-6.688 15.717 15.717 0 0 1-3.292-7.626 87.906 87.906 0 0 1-.794-14.114c.009-1.725.058-3.45.1-5.175a1.819 1.819 0 1 1 3.635.044c-.022 2.723-.1 5.446-.084 8.169a72.29 72.29 0 0 0 .771 10.765 12.85 12.85 0 0 0 3.108 6.432 44.33 44.33 0 0 0 7.955 7.2 87.738 87.738 0 0 0 22.957 12 41.685 41.685 0 0 0 9.659 1.976c3.414.325 6.84.529 10.263.761a4.522 4.522 0 0 1 4.016 2.962 9.38 9.38 0 0 1-.13 7.731 12.131 12.131 0 0 1-7.353 6.63 18.971 18.971 0 0 1-5.7 1.134c-.2.011-.4.055-.6.084h-73.566a61.518 61.518 0 0 0-.823-.2c-5.144-1.244-8.687-4.208-10.085-9.443-.22-.827-.309-1.689-.459-2.534z" transform="translate(-3)"/>
            <path fill="#ed1c24" d="M248.525 2688.687a19.074 19.074 0 0 1-6.137-1.033 9.28 9.28 0 0 1-6.241-7.594 20.337 20.337 0 0 1 1.473-10.815 1.767 1.767 0 0 1 2.362-.967 1.789 1.789 0 0 1 .968 2.361 18.578 18.578 0 0 0-1.295 5.4 15.814 15.814 0 0 0 .088 3.433c.445 2.914 2.328 4.5 5.1 5.136a19.721 19.721 0 0 0 6.658.159c.454-.051.9-.139 1.359-.157a1.771 1.771 0 0 1 1.845 1.531 1.721 1.721 0 0 1-1.4 2.031c-1.584.228-3.185.348-4.78.515z" transform="translate(-3)"/>
            <path fill="none" stroke="#ed1c24" stroke-width="3" d="M222.241 2739.568c.25-.75 40-30.25 84.75 0" transform="translate(-3)"/>
        </g>
    </symbol>
    <symbol id="power" viewBox="0 0 102.624 102.754">
        <g transform="translate(-964.398 -2614.969)">
            <path fill="#ed1c24" stroke="#fff" stroke-width="3" d="M1016.175 2616.47a50 50 0 0 1 23.925 6.688 3.051 3.051 0 0 1 1.331 4.351 3.084 3.084 0 0 1-4.359 1.039 42.914 42.914 0 0 0-16-5.32 41.942 41.942 0 0 0-31 8.065c-12.676 9.449-18.657 22.3-17.729 38.065a43.437 43.437 0 0 0 86.149 4.3 42.51 42.51 0 0 0-4.414-27.549c-.284-.544-.594-1.077-.828-1.642a3.022 3.022 0 0 1 1.365-3.934 2.963 2.963 0 0 1 4.029 1.056 37.245 37.245 0 0 1 2.011 3.79 49.653 49.653 0 1 1-55.127-27.638c3.492-.709 7.096-.86 10.647-1.271z"/>
            <path fill="#ed1c24" stroke="#fff" stroke-width="3" d="M1003.835 2692.239l6.316-22.712h-9c.15-.4.241-.68.358-.949q4.844-11.146 9.686-22.294c.233-.539.469-.873 1.166-.87 6.445.03 12.89.017 19.335.02.222 0 .444.04.817.075l-12.161 18.75h9.622L1004 2692.346z"/>
        </g>
    </symbol>
    <symbol id="universally" viewBox="0 0 100.302 100.195">
        <g id="Group_30" data-name="Group 30" transform="translate(-213.866 -2894.537)">
            <path fill="#ed1c24" stroke="#fff" stroke-width="3" d="M237.491 2911.064l.048.055a3.689 3.689 0 0 1-.085 4.977 40.082 40.082 0 0 0-11.449 31.24A39.666 39.666 0 0 0 239.276 2975a41.128 41.128 0 0 0 57.362-1.82 41.029 41.029 0 0 0-.035-57.058 3.689 3.689 0 0 1-.093-5l.063-.071a3.7 3.7 0 0 1 5.43-.113 48.6 48.6 0 1 1-69.932-.012 3.693 3.693 0 0 1 5.42.138z"/>
            <path fill="#ed1c24" stroke="#fff" stroke-width="3" d="M243.619 2928.768l.05-.054a3.686 3.686 0 0 1 5.212-.228l14.393 13.213v-41.976a3.686 3.686 0 0 1 3.686-3.686h.089a3.686 3.686 0 0 1 3.686 3.686v41.884l.085.038 14.321-13.168a3.684 3.684 0 0 1 5.2.209l.074.079a3.686 3.686 0 0 1-.21 5.217l-23.186 21.331-23.176-21.345a3.687 3.687 0 0 1-.224-5.2z"/>
        </g>
    </symbol>
    <symbol id="point" viewBox="0 0 264.973 343.212">
        <g transform="translate(-1295.848 -338.984)">
            <path fill="#e22929" d="M1426.655 338.984c64.728 0 119.925 45.319 131.659 106.881 6.932 36.37-.631 69.913-21.23 100.256-12.585 18.539-26.552 36.148-40.053 54.057q-28.758 38.15-57.754 76.119c-5.974 7.849-15.831 7.842-21.886.116-.849-1.082-1.671-2.186-2.5-3.283-30.692-40.6-61.562-81.065-92-121.856-13.867-18.584-22.96-39.523-25.871-62.663-4.711-37.44 4.738-71.2 28.494-100.529 21.84-26.966 50.33-42.715 84.661-47.846 2.091-.313 4.2-.564 6.305-.706 3.906-.263 7.82-.423 10.175-.546zm1.585 318.824c1.088-1.37 1.886-2.335 2.642-3.332 16.257-21.407 32.571-42.772 48.742-64.244 13.75-18.258 27.907-36.247 40.846-55.069 16.6-24.144 23.559-51.009 19.16-80.405-8.223-54.948-56.056-96.3-111.485-95.824-35.673.307-65.151 14.49-87.555 42.183-20.381 25.194-28.264 54.265-23.615 86.448 3.037 21.024 12.3 39.423 24.944 56.218q32.267 42.87 64.705 85.611c7.076 9.357 14.207 18.678 21.616 28.414z" />
            <path fill="#e22929" d="M1506.962 471.839c0 43.293-35.405 78.416-79.021 78.4-43.549-.02-78.376-35.446-78.361-79.708.015-42.561 35.667-77.772 78.717-77.742a78.648 78.648 0 0 1 78.665 79.05z" />
        </g>
    </symbol>
    <symbol id="shadow" viewBox="0 0 550.398 389.293">
        <g transform="translate(-1153.135 -546.296)">
            <path fill="#878787" opacity="0.28" d="M1520.423 756.219c0 16.219-41.433 29.378-92.476 29.37-50.963-.007-91.719-13.279-91.7-29.861.017-15.945 41.74-29.137 92.119-29.125 51.072.011 92.058 13.197 92.057 29.616z" />
            <path fill="#878787" opacity="0.04" d="M1553.533 736.561c0 22.051-56.33 39.941-125.725 39.93-69.286-.01-124.7-18.054-124.673-40.6.023-21.678 56.747-39.612 125.24-39.6 69.437.021 125.16 17.948 125.158 40.27z" />
            <path fill="#878787" opacity="0.28" d="M1467.09 748.858c0 6.826-17.437 12.363-38.919 12.36-21.447 0-38.6-5.588-38.592-12.567.007-6.711 17.566-12.262 38.768-12.257 21.494.006 38.743 5.554 38.743 12.464z" />
        </g>
    </symbol>
    <symbol id="cart" viewBox="0 0 576 512">
        <path fill="#231f20" d="M528.12 301.319l47.273-208C578.806 78.301 567.391 64 551.99 64H159.208l-9.166-44.81C147.758 8.021 137.93 0 126.529 0H24C10.745 0 0 10.745 0 24v16c0 13.255 10.745 24 24 24h69.883l70.248 343.435C147.325 417.1 136 435.222 136 456c0 30.928 25.072 56 56 56s56-25.072 56-56c0-15.674-6.447-29.835-16.824-40h209.647C430.447 426.165 424 440.326 424 456c0 30.928 25.072 56 56 56s56-25.072 56-56c0-22.172-12.888-41.332-31.579-50.405l5.517-24.276c3.413-15.018-8.002-29.319-23.403-29.319H218.117l-6.545-32h293.145c11.206 0 20.92-7.754 23.403-18.681z"></path>
    </symbol>
    <symbol id="advantage-1" viewBox="0 0 140.258 86.931">
        <g transform="translate(-256.078 -2432.275)">
            <g transform="translate(-1.98 37.323)">
                <path fill="#e41d23" fill-rule="evenodd" d="M317.125 2395.294c2 .586 4.388-1.313 9.69 3.505 1.2 1.089 2.8 2.5 4.653 4.115l.584-.549a.978.978 0 0 1 1.336 1.428l-.437.408a1530.5 1530.5 0 0 0 8.187 7.007l.568-.531a.977.977 0 1 1 1.335 1.427l-.4.377a2791.4 2791.4 0 0 0 8.1 6.843l.731-.683a.977.977 0 1 1 1.335 1.427l-.558.524c2.266 1.906 4.157 3.491 5.392 4.524 5.535 4.632 25.438 7.754 29.785 9.241s8.724 9.1 2.3 13.257-32.583 7.009-51.264 3.552-34.681-3.1-48.743-4.074-28.8-4.437-30.976-7.582 4.76-6.639 4.525-11.113 6.462-17.248 6.977-21.4-.134-5.3 3.2-5.142a.447.447 0 0 0 .416-.232c4.751-.175 7.646 8.2 18.773 8.967 11.407.793 26.017-6.222 28.9-8.019s-5.139-3.217-4.44-7.166z" />
                <path fill="none" stroke='#e41d23' stroke-miterlimit='22.926' stroke-width='.547' d="M317.125 2395.294c2 .586 4.388-1.313 9.69 3.505 1.2 1.089 2.8 2.5 4.653 4.115l.584-.549a.978.978 0 0 1 1.336 1.428l-.437.408a1530.5 1530.5 0 0 0 8.187 7.007l.568-.531a.977.977 0 1 1 1.335 1.427l-.4.377a2791.4 2791.4 0 0 0 8.1 6.843l.731-.683a.977.977 0 1 1 1.335 1.427l-.558.524c2.266 1.906 4.157 3.491 5.392 4.524 5.535 4.632 25.438 7.754 29.785 9.241s8.724 9.1 2.3 13.257-32.583 7.009-51.264 3.552-34.681-3.1-48.743-4.074-28.8-4.437-30.976-7.582 4.76-6.639 4.525-11.113 6.462-17.248 6.977-21.4-.134-5.3 3.2-5.142a.447.447 0 0 0 .416-.232c4.751-.175 7.646 8.2 18.773 8.967 11.407.793 26.017-6.222 28.9-8.019s-5.139-3.217-4.44-7.166z" />
                <path fill="#fff" fill-rule="evenodd" d="M318.67 2403.85c2.038.6 4.48-1.34 9.891 3.578a294.248 294.248 0 0 0 4.751 4.2l.6-.56a1 1 0 1 1 1.364 1.457l-.446.416c2.548 2.2 5.439 4.673 8.359 7.155l.578-.543a1 1 0 0 1 1.364 1.457l-.412.384c2.889 2.45 5.747 4.863 8.27 6.986l.746-.7a1 1 0 0 1 1.364 1.457l-.571.534c2.313 1.945 4.244 3.564 5.506 4.619 5.65 4.728 25.966 7.915 30.4 9.434s8.9 9.294 2.351 13.533-33.262 7.155-52.332 3.626-35.4-3.165-49.758-4.16-29.4-4.529-31.622-7.74 4.859-6.776 4.619-11.344 6.6-17.608 7.123-21.839-.137-5.414 3.264-5.252a.453.453 0 0 0 .425-.236c4.85-.178 7.8 8.366 19.163 9.153 11.645.811 26.56-6.351 29.5-8.185s-5.246-3.284-4.532-7.316z" />
                <path fill="#060605" fill-rule="evenodd" d="M319.312 2414.9c2.079.611 4.571-1.367 10.092 3.652a343.98 343.98 0 0 0 4.847 4.285l.609-.57a1.018 1.018 0 1 1 1.391 1.486l-.454.424c2.6 2.247 5.55 4.769 8.528 7.3l.591-.553a1.018 1.018 0 1 1 1.392 1.486l-.42.393c2.947 2.5 5.863 4.961 8.438 7.128l.761-.711a1.018 1.018 0 1 1 1.392 1.486l-.583.545a3283.52 3283.52 0 0 0 5.618 4.714c5.765 4.823 26.5 8.076 31.026 9.625s9.087 9.484 2.4 13.81-33.94 7.3-53.4 3.7-36.126-3.229-50.773-4.244-30-4.622-32.268-7.9 4.959-6.915 4.714-11.576 6.732-17.967 7.269-22.286-.14-5.523 3.33-5.357a.466.466 0 0 0 .434-.242c4.948-.181 7.964 8.537 19.554 9.34 11.882.827 27.1-6.48 30.1-8.352s-5.352-3.351-4.624-7.466z" />
                <path fill="#060605" d="M394.567 2473.2a15.729 15.729 0 0 1-3.743 2.221c-1.323.591-2.682 1.089-4.051 1.546a83.582 83.582 0 0 1-8.369 2.2 128.844 128.844 0 0 1-17.146 2.409 107.508 107.508 0 0 1-17.4-.093l-4.3-.43c-1.427-.139-2.856-.234-4.284-.352-2.857-.18-5.717-.334-8.58-.4-11.46-.365-22.886.7-34.49.443a116.018 116.018 0 0 1-17.375-1.7 77.134 77.134 0 0 1-8.54-1.963 39.783 39.783 0 0 1-4.154-1.486 10.259 10.259 0 0 1-3.748-2.435l.229-.21a6.284 6.284 0 0 0 1.806 1.066 18.435 18.435 0 0 0 2.01.7c1.37.391 2.761.7 4.168.961 2.808.528 5.648.876 8.491 1.164 2.847.268 5.7.487 8.546.6s5.7.191 8.545.14c2.856-.019 5.721-.093 8.592-.14l8.635-.089c5.771.02 11.559.1 17.345.42 2.893.141 5.786.377 8.672.638 1.442.16 2.885.294 4.326.476l4.291.546a105.591 105.591 0 0 0 17.107.559 128.065 128.065 0 0 0 17.062-1.789 82.684 82.684 0 0 0 8.364-1.882c1.371-.4 2.732-.833 4.055-1.36a15.352 15.352 0 0 0 3.736-2.007z"/>
            </g>
        </g>
    </symbol>
    <symbol id="advantage-2" viewBox="0 0 58.568 155.253">
        <g transform="translate(-929.216 -2360.962)">
            <path fill="#060605" fill-rule="evenodd"  d="M977.839 2361.294c12.533 3.912 9.563 21.368 9.793 29.11 1.012 33.871-13.178 45.936-13.111 70.789.037 14.134 6.66 34.6.555 46.1-8.4 15.408-27.881 9.1-33.119-5.548-2.168-6.06-2.08-16.76-2.558-23.584a191.044 191.044 0 0 0-3.29-23.144c-2.047-10.416-9.021-35.4-6.252-44.88a35.037 35.037 0 0 0 1.9-11.1c-.202-14.25 34.418-41.382 46.082-37.743z"/>
            <path fill="#e41d23" fill-rule="evenodd" d="M931.077 2406.007c2.525 9.74 21.395 3.2 22.334 14.913 1.136 14.163-22.656 11.415-19.412 22.317.3 1.02.582 2 .847 2.957-.24-.9-.962-3.207-1.236-4.16-1.209-4.2 3.643-8.067 6.587-9.02 3.848-1.246 5.536-2.7 6.517-4.749 1.643-3.427 1.347-9.842-1.9-12-4.525-3.013-12.214-1.88-13.737-10.258zm56.186-14.263c-1.121 2.6-3.235 5.389-6.783 5.036-11.642-1.156-18.789 25.983-6.584 28.295 4.766.9 6.674 4.7 4.9 9.612-.427 1.187-1.362 3.336-1.767 4.5q.648-1.811 1.333-3.66c1.891-5.106-2.147-8.849-7.292-9.8-7.951-1.465-10.611-7.2-9.2-15.153 1.456-8.181 9.649-14.873 16.175-14.238 3.792.371 8.041-2.207 9.218-4.592z"/>
        </g>
    </symbol>
    <symbol id="advantage-3" viewBox="0 0 140.258 86.926">
        <g transform="translate(-1531.1 -2433.078)">
            <g transform="translate(-1.98 37.323)">
                <path fill="#060605" fill-rule="evenodd" d="M1594.334 2395.755c2.08.611 4.571-1.367 10.093 3.651 6.824 6.209 26.343 22.587 32.11 27.414s26.5 8.077 31.026 9.625 9.086 9.485 2.4 13.811-33.94 7.3-53.4 3.7-36.126-3.23-50.774-4.244-30-4.622-32.268-7.9 4.959-6.915 4.715-11.575 6.731-17.968 7.268-22.286-.14-5.524 3.331-5.358a.461.461 0 0 0 .433-.241c4.948-.181 7.964 8.536 19.555 9.34 11.882.827 27.1-6.481 30.1-8.352s-5.352-3.352-4.624-7.466z" />
                <path fill="#060605" d="M1669.59 2455.7a15.7 15.7 0 0 1-3.744 2.222c-1.322.591-2.682 1.089-4.05 1.547a84.252 84.252 0 0 1-8.369 2.2 129.059 129.059 0 0 1-17.147 2.409 107.537 107.537 0 0 1-17.4-.094l-4.3-.429c-1.427-.14-2.856-.234-4.284-.352-2.857-.18-5.717-.334-8.58-.4-11.46-.364-22.886.7-34.49.444a116.044 116.044 0 0 1-17.376-1.7 77.507 77.507 0 0 1-8.539-1.963 39.747 39.747 0 0 1-4.155-1.486 10.279 10.279 0 0 1-3.748-2.434l.228-.211a6.318 6.318 0 0 0 1.807 1.066 18.3 18.3 0 0 0 2.01.7c1.371.392 2.761.706 4.169.962 2.807.528 5.648.875 8.49 1.163 2.847.269 5.695.488 8.546.6s5.7.19 8.545.14c2.856-.02 5.722-.093 8.592-.14l8.635-.089c5.771.02 11.56.095 17.345.419 2.893.142 5.786.378 8.672.638 1.442.161 2.886.3 4.327.477l4.291.547a105.813 105.813 0 0 0 17.107.557 128.388 128.388 0 0 0 17.061-1.787 82.9 82.9 0 0 0 8.364-1.883c1.372-.4 2.733-.833 4.056-1.359a15.471 15.471 0 0 0 3.735-2.008z"/>
                <path fill="none" stroke-linecap="round" stroke-linejoin="round" stroke="#060605" stroke-width="2.871" d="M0 4.464L4.768 0"  transform="translate(1617.039 2411.358)"/>
                <path fill="none" stroke-linecap="round" stroke-linejoin="round" stroke="#060605" stroke-width="2.871" d="M0 4.817L5.142 0"  transform="translate(1606.608 2402.702)"/>
                <path fill="none" stroke-linecap="round" stroke-linejoin="round" stroke="#060605" stroke-width="2.871" d="M0 4.153L4.439 0"  transform="translate(1627.54 2419.654)"/>
                <path fill="none" stroke-linecap="round" stroke-linejoin="round" stroke="#e41d23" stroke-width="2.513" d="M1665.251 2466.52c-16.735 8.956-37.82 14.478-60.806 14.879-24.777.431-47.554-5.162-65.192-14.776" />
            </g>
        </g>
    </symbol>
    <symbol id="advantage-4" viewBox="0 0 106.719 120.359">
        <g transform="translate(-267.725 -2756.646)">
            <path fill="#e41d23" fill-rule="evenodd" d="M331.694 2833.073l24.391 22.628c.2-.225.4-.447.622-.668 6.182-6.047 11.509-18.791 12.017-27.773l-1.884-.071a7.357 7.357 0 0 1-1.638 2.045 9.549 9.549 0 0 1-6.674 2.066c-5.155-.025-10.311-.006-15.467-.006-.814 0-9.536-.242-10.052.13a15.42 15.42 0 0 0-1.315 1.649z"/>
            <path fill-rule="evenodd" fill="#060605" d="M356.084 2855.64l-24.384-22.628a15.187 15.187 0 0 1 1.314-1.649c.517-.372 9.238-.13 10.052-.13 5.156 0 10.312-.02 15.467.007a9.555 9.555 0 0 0 6.673-2.067 7.337 7.337 0 0 0 1.639-2.046l1.885.072c-.509 8.982-5.836 21.725-12.018 27.773-.225.221-.427.443-.623.668m-.709-33.108a35.145 35.145 0 0 1 5.218.266 1.7 1.7 0 0 1 .451 2.636c-.815.781-3.9.443-5.048.443H328.82l-.233.993c-1.686 7.2-12.183 8.693-16.192 1.378a5.2 5.2 0 0 1-.63-1.538 6.881 6.881 0 0 1-.312-2.906 8.651 8.651 0 0 1 8.271-8.225c3.791 0 7.944 2.068 8.863 6l.233.991h1.025c5.18 0 10.366-.094 15.549-.1 3.326-.006 6.656-.001 9.981.062zm-24.061-7.878c-3.315-3.859-6.165-3.9-10.3-4.749V2793.6c0-5.669-.315-11.379-.034-17.038v-.051a10.34 10.34 0 0 0 1.518.2 39.512 39.512 0 0 1 7.584.914 50.143 50.143 0 0 1 14.895 5.834c.908.546 1.861 1.041 2.733 1.643.8.554 1.552 1.168 2.335 1.747l4.6 3.989c.727.726 1.283 1.59 2.059 2.353a36.454 36.454 0 0 1 6.443 9.189c3.11 6.025 5.3 13.128 5.585 18.742l-1.815.061a7.452 7.452 0 0 0-1.718-2.193 9.547 9.547 0 0 0-6.674-2.065c-5.155.027-10.311 0-15.467 0-.813 0-9.534.244-10.05-.13-.297-.213-1.372-1.76-1.699-2.141zm-63.589 9.285a53.36 53.36 0 0 0 106.719 0 52.659 52.659 0 0 0-10.975-32.239l-.769-1 .734-1.024c1.006-1.4 3.3-3.825 5.06-4a10.037 10.037 0 0 1 2.267.174l.066-.062c.3-.295.744-.784.687-1.25-.119-.989-2.187-2.773-2.89-3.472-.923-.917-2.231-2.738-3.639-2.738a2.8 2.8 0 0 0-1.5 1.717c0 .278.573 1.3.691 1.809l.211.9-4.528 4.686-1.22-1.2a53.325 53.325 0 0 0-30.055-14.849q-.318-.045-.637-.085l-1.482-.189v-5.742l.655-.054.9-.074c4.225-.35 3.922-2.521 3.922-5.94a3.57 3.57 0 0 0-2.687-2.663h-13.7a3.569 3.569 0 0 0-2.687 2.663c0 2.137-.5 3.431 1.155 4.964.967.894 1.738.719 3.009 1.013l1.313.3v5.332l-1.561.123a53.187 53.187 0 0 0-49.064 52.9z"/>
        </g>
    </symbol>
    <symbol id="advantage-5" viewBox="0 0 133.711 114.437">
        <g transform="translate(-891.645 -2758.96)">
            <g>
                <g>
                    <path fill="none" stroke="#e41d23" stroke-linecap="round" stroke-linejoin="round" stroke-width="3.134" d="M1000.853 2760.527l11.721 7.42-7.607 6.24z" />
                    <path fill="none" stroke="#e41d23" stroke-linecap="round" stroke-linejoin="round" stroke-width="3.134" d="M916.147 2760.527l-11.721 7.42 7.608 6.24z" />
                </g>
                <g>
                    <path fill="none" stroke="#e41d23" stroke-linecap="round" stroke-linejoin="round" stroke-width="3.134" d="M1006.514 2852.957c22.11-21.791 23.126-58.182 2.271-81.285" />
                    <path fill="#1d1d1b" fill-rule="evenodd" d="M968.862 2767.34a22.078 22.078 0 0 0-4.4-3.109 13.448 13.448 0 0 0-11.931 0 22.107 22.107 0 0 0-4.4 3.109q-.717 3.871-1.436 7.741l-.8 4.292c-.2-.325-.161-.211-.274-.888-1.031-6.173-3.756-8.819 3.19-14.241a17.684 17.684 0 0 1 5.318-3 14.38 14.38 0 0 1 4.237-.715h.248a14.4 14.4 0 0 1 4.238.715 17.684 17.684 0 0 1 5.318 3c6.944 5.422 4.22 8.068 3.189 14.241-.114.677-.079.563-.273.888l-.8-4.292zm3.515 18.8c.358-.015.953-.228.953-.671 0-.427-.5-.686-.884-.669-9.232.4-18.479.433-27.71 0-.382-.019-.881.243-.881.669 0 .444.6.654.96.671 9.18.448 18.385.378 27.562-.001zm-.5 7.89c.349-.031.943-.236.943-.673a.77.77 0 0 0-.833-.671q-13.449.61-26.916 0a.768.768 0 0 0-.831.671c0 .436.6.64.949.674a142.216 142.216 0 0 0 26.691-.002zm-.04 7.371c.331-.047.983-.247.983-.678a.735.735 0 0 0-.8-.672 145.309 145.309 0 0 1-26.993 0 .732.732 0 0 0-.79.673c0 .431.65.631.982.678a96.05 96.05 0 0 0 26.621-.002zm.736 6.925c.3-.052 1.091-.265 1.091-.681s-.494-.706-.884-.673a160.031 160.031 0 0 1-28.289 0 .791.791 0 0 0-.876.674c0 .4.822.626 1.112.685a75.634 75.634 0 0 0 27.849-.006zm9.747 5.778a8.652 8.652 0 0 1 3.023-3.121c.034-.78-.763-7.517-.9-9.073-.274-3.142-.385-6.293-.67-9.413a49.166 49.166 0 0 0-1.678-8.458l-3.249-6.937a1.419 1.419 0 0 0-.688.764c-.73 1.793 1.039 5.59 1.49 7.134 1.8 6.148 2.129 19.566 2.2 27.368.008.823.013 1.586.017 2.269l.215-.2a1.341 1.341 0 0 0 .243-.337zm-47.645 0a8.672 8.672 0 0 0-3.024-3.121c-.035-.78.762-7.517.9-9.073.273-3.142.384-6.293.67-9.413a49.166 49.166 0 0 1 1.678-8.458l3.25-6.937a1.422 1.422 0 0 1 .687.764c.729 1.793-1.038 5.59-1.49 7.134-1.8 6.148-2.128 19.566-2.2 27.368-.007.823-.013 1.586-.016 2.269l-.214-.2a1.266 1.266 0 0 1-.238-.337zm1.449-42.21c-2.909 2.556-2.511 4.442-3.748 7.657l-.988 2.8c-3.012 9.317-1.933 16.562-3.79 26.7-.47 2.566-.848 2.771-.442 4.727a3.8 3.8 0 0 1-.2 1.676c-.975 4.572-.451 5.543-2.809 8.579-.716.921-.619 1.927-.81 3.137-.9 5.665-2.778 7.371-3.832 11.494a33.7 33.7 0 0 0-.772 4.425l-.082.762c-.723 1.825-4.272 10.541-4.323 11.571a2.644 2.644 0 0 0 1.409 2.591c-.324 2.621.118 2.622 1.19 4.251 1.59 2.416 2.068 1.28 3.54 2.494 6.114 4.886 22.236 7.976 38.025 8.368 15.788-.392 31.911-3.482 38.026-8.368 1.472-1.214 1.949-.078 3.539-2.494 1.071-1.629 1.514-1.63 1.19-4.251a2.642 2.642 0 0 0 1.409-2.591c-.051-1.03-3.6-9.746-4.322-11.571l-.084-.762a33.363 33.363 0 0 0-.77-4.425c-1.054-4.123-2.934-5.829-3.833-11.494-.193-1.21-.094-2.216-.809-3.137-2.359-3.036-1.836-4.007-2.81-8.579a3.812 3.812 0 0 1-.2-1.676c.407-1.956.028-2.161-.443-4.727-1.856-10.135-.777-17.38-3.79-26.7l-.987-2.8c-1.237-3.215-.839-5.1-3.748-7.657l-6.346 2.813c-.966 1.053-1.791 4.118-2.4 8.037h.573a2.726 2.726 0 0 1 0 5.451h-1.237c-.074.8-.14 1.617-.2 2.437h.989a2.725 2.725 0 1 1 0 5.45h-1.245a95.956 95.956 0 0 0-.026 1.916h1.271a2.725 2.725 0 0 1 0 5.451h-1.107c.037.51.079 1 .129 1.469H973a2.726 2.726 0 0 1 .094 5.45.8.8 0 0 0 .2.048l.076.5.229.18a5.007 5.007 0 0 0 .79.4 9.689 9.689 0 0 1 2.512 1.378l-3.272-.741-1.635.383-.018.241a3.811 3.811 0 0 1-.853-.038l-4.025.943a78.334 78.334 0 0 0-17.189 0l-4.024-.943a3.812 3.812 0 0 1-.853.038l-.017-.241-1.635-.383-3.273.741a9.689 9.689 0 0 1 2.512-1.378 5.051 5.051 0 0 0 .79-.4l.229-.18.076-.5a.8.8 0 0 0 .2-.048 2.726 2.726 0 0 1 .094-5.45h1.722c.048-.468.092-.959.129-1.469h-1.107a2.725 2.725 0 0 1 0-5.451h1.271c0-.629-.011-1.269-.025-1.916h-1.246a2.725 2.725 0 1 1 0-5.45h.989c-.058-.82-.124-1.634-.2-2.437H944.3a2.726 2.726 0 0 1 0-5.451h.574c-.61-3.919-1.434-6.984-2.4-8.037zm22.373 74.353c-5.7.012-11.278-1.115-11.405-3.027a2 2 0 0 1 .226-1.111c1.191-2.188 6.643-1.75 8.15-1.8a331.2 331.2 0 0 0 3.029-.109c1.007.042 2.015.076 3.028.109 1.508.048 6.96-.39 8.151 1.8a1.989 1.989 0 0 1 .225 1.111c-.123 1.911-5.701 3.038-11.401 3.026zm0-7.255q-1.167 0-2.325-.028c-10.555-.238-16.341-.377-24.581-5.459-3.834-2.365-3.878-.042-6.741 1.343l1.189-1.5c.344-.362.658-.675.955-.94a5.938 5.938 0 0 1 .795-.608 3.151 3.151 0 0 1 2.9-.247c.134.042.275.09.42.144 1.1.412 2.213 1.036 3.33 1.51 6.784 2.879 13.619 2.773 21.294 2.877.816.011 1.749.024 2.768.035 1.019-.011 1.951-.024 2.768-.035 7.675-.1 14.51 0 21.294-2.877 1.117-.474 2.226-1.1 3.331-1.51q.218-.081.42-.144a3.147 3.147 0 0 1 2.894.247 5.94 5.94 0 0 1 .8.608c.3.265.612.578.954.94.4.5.794 1 1.189 1.5-2.863-1.385-2.906-3.708-6.74-1.343-8.24 5.082-14.026 5.221-24.581 5.459q-1.161.026-2.33.027z" />
                    <path fill="none" stroke="#1d1d1b" stroke-miterlimit="22.926" stroke-width=".547" d="M968.862 2767.34a22.078 22.078 0 0 0-4.4-3.109 13.448 13.448 0 0 0-11.931 0 22.107 22.107 0 0 0-4.4 3.109q-.717 3.871-1.436 7.741l-.8 4.292c-.2-.325-.161-.211-.274-.888-1.031-6.173-3.756-8.819 3.19-14.241a17.684 17.684 0 0 1 5.318-3 14.38 14.38 0 0 1 4.237-.715h.248a14.4 14.4 0 0 1 4.238.715 17.684 17.684 0 0 1 5.318 3c6.944 5.422 4.22 8.068 3.189 14.241-.114.677-.079.563-.273.888l-.8-4.292zm3.515 18.8c.358-.015.953-.228.953-.671 0-.427-.5-.686-.884-.669-9.232.4-18.479.433-27.71 0-.382-.019-.881.243-.881.669 0 .444.6.654.96.671 9.18.448 18.385.378 27.562-.001zm-.5 7.89c.349-.031.943-.236.943-.673a.77.77 0 0 0-.833-.671q-13.449.61-26.916 0a.768.768 0 0 0-.831.671c0 .436.6.64.949.674a142.216 142.216 0 0 0 26.691-.002zm-.04 7.371c.331-.047.983-.247.983-.678a.735.735 0 0 0-.8-.672 145.309 145.309 0 0 1-26.993 0 .732.732 0 0 0-.79.673c0 .431.65.631.982.678a96.05 96.05 0 0 0 26.621-.002zm.736 6.925c.3-.052 1.091-.265 1.091-.681s-.494-.706-.884-.673a160.031 160.031 0 0 1-28.289 0 .791.791 0 0 0-.876.674c0 .4.822.626 1.112.685a75.634 75.634 0 0 0 27.849-.006zm9.747 5.778a8.652 8.652 0 0 1 3.023-3.121c.034-.78-.763-7.517-.9-9.073-.274-3.142-.385-6.293-.67-9.413a49.166 49.166 0 0 0-1.678-8.458l-3.249-6.937a1.419 1.419 0 0 0-.688.764c-.73 1.793 1.039 5.59 1.49 7.134 1.8 6.148 2.129 19.566 2.2 27.368.008.823.013 1.586.017 2.269l.215-.2a1.341 1.341 0 0 0 .243-.337zm-47.645 0a8.672 8.672 0 0 0-3.024-3.121c-.035-.78.762-7.517.9-9.073.273-3.142.384-6.293.67-9.413a49.166 49.166 0 0 1 1.678-8.458l3.25-6.937a1.422 1.422 0 0 1 .687.764c.729 1.793-1.038 5.59-1.49 7.134-1.8 6.148-2.128 19.566-2.2 27.368-.007.823-.013 1.586-.016 2.269l-.214-.2a1.266 1.266 0 0 1-.238-.337zm1.449-42.21c-2.909 2.556-2.511 4.442-3.748 7.657l-.988 2.8c-3.012 9.317-1.933 16.562-3.79 26.7-.47 2.566-.848 2.771-.442 4.727a3.8 3.8 0 0 1-.2 1.676c-.975 4.572-.451 5.543-2.809 8.579-.716.921-.619 1.927-.81 3.137-.9 5.665-2.778 7.371-3.832 11.494a33.7 33.7 0 0 0-.772 4.425l-.082.762c-.723 1.825-4.272 10.541-4.323 11.571a2.644 2.644 0 0 0 1.409 2.591c-.324 2.621.118 2.622 1.19 4.251 1.59 2.416 2.068 1.28 3.54 2.494 6.114 4.886 22.236 7.976 38.025 8.368 15.788-.392 31.911-3.482 38.026-8.368 1.472-1.214 1.949-.078 3.539-2.494 1.071-1.629 1.514-1.63 1.19-4.251a2.642 2.642 0 0 0 1.409-2.591c-.051-1.03-3.6-9.746-4.322-11.571l-.084-.762a33.363 33.363 0 0 0-.77-4.425c-1.054-4.123-2.934-5.829-3.833-11.494-.193-1.21-.094-2.216-.809-3.137-2.359-3.036-1.836-4.007-2.81-8.579a3.812 3.812 0 0 1-.2-1.676c.407-1.956.028-2.161-.443-4.727-1.856-10.135-.777-17.38-3.79-26.7l-.987-2.8c-1.237-3.215-.839-5.1-3.748-7.657l-6.346 2.813c-.966 1.053-1.791 4.118-2.4 8.037h.573a2.726 2.726 0 0 1 0 5.451h-1.237c-.074.8-.14 1.617-.2 2.437h.989a2.725 2.725 0 1 1 0 5.45h-1.245a95.956 95.956 0 0 0-.026 1.916h1.271a2.725 2.725 0 0 1 0 5.451h-1.107c.037.51.079 1 .129 1.469H973a2.726 2.726 0 0 1 .094 5.45.8.8 0 0 0 .2.048l.076.5.229.18a5.007 5.007 0 0 0 .79.4 9.689 9.689 0 0 1 2.512 1.378l-3.272-.741-1.635.383-.018.241a3.811 3.811 0 0 1-.853-.038l-4.025.943a78.334 78.334 0 0 0-17.189 0l-4.024-.943a3.812 3.812 0 0 1-.853.038l-.017-.241-1.635-.383-3.273.741a9.689 9.689 0 0 1 2.512-1.378 5.051 5.051 0 0 0 .79-.4l.229-.18.076-.5a.8.8 0 0 0 .2-.048 2.726 2.726 0 0 1 .094-5.45h1.722c.048-.468.092-.959.129-1.469h-1.107a2.725 2.725 0 0 1 0-5.451h1.271c0-.629-.011-1.269-.025-1.916h-1.246a2.725 2.725 0 1 1 0-5.45h.989c-.058-.82-.124-1.634-.2-2.437H944.3a2.726 2.726 0 0 1 0-5.451h.574c-.61-3.919-1.434-6.984-2.4-8.037z" />
                    <path fill="none" stroke="#e41d23" stroke-linecap="round" stroke-linejoin="round" stroke-width="3.134" d="M910.487 2852.957c-22.11-21.793-23.128-58.182-2.273-81.285" />
                    <path fill-rule="evenodd" fill="#e41d23" d="M972.612 2854.154c-2.573-2.393-3.248-3.67-7.516-4.924a18.757 18.757 0 0 0-13.192 0c-4.267 1.254-4.944 2.531-7.516 4.924a11.32 11.32 0 0 0-.99.917c-.6.67-1.223 1.191-1.8 1.866a9.507 9.507 0 0 1-.878.859c-.517.5-1.23 1.353-2.02 2.048l-.151.131a6.116 6.116 0 0 1-.7.519 17.322 17.322 0 0 1-2.348 1.258c-6.291 2.8-13.632-2.262-16.117-7.75l-1.089-2.51a3.661 3.661 0 0 0-.412 3.707c.833 2.928.132 1.724.02 4.159.913.792.931 1.034 1.378 1.2.412.148 1.19.229 3.376.61l-.073 2.1 2.788 1.243.9-.587a14.552 14.552 0 0 1 1.818.479l1.033 1.223c2.991.743 5.863 1.373 8.639 1.9a103.6 103.6 0 0 0 41.486 0 158.03 158.03 0 0 0 8.639-1.9l1.034-1.223a14.458 14.458 0 0 1 1.818-.479l.9.587 2.789-1.243-.074-2.1c2.186-.381 2.964-.462 3.377-.61.446-.162.464-.4 1.378-1.2-.113-2.435-.813-1.231.02-4.159a3.663 3.663 0 0 0-.412-3.707l-1.091 2.51c-2.483 5.488-9.825 10.547-16.116 7.75a17.186 17.186 0 0 1-2.347-1.258 5.941 5.941 0 0 1-.7-.519l-.152-.131c-.789-.7-1.5-1.552-2.019-2.048a9.652 9.652 0 0 1-.879-.859c-.577-.675-1.2-1.2-1.8-1.866a11.47 11.47 0 0 0-1.001-.917z" />
                    <path fill="none" stroke="#1d1d1b" stroke-miterlimit="22.926" stroke-width=".547" d="M972.612 2854.154c-2.573-2.393-3.248-3.67-7.516-4.924a18.757 18.757 0 0 0-13.192 0c-4.267 1.254-4.944 2.531-7.516 4.924a11.32 11.32 0 0 0-.99.917c-.6.67-1.223 1.191-1.8 1.866a9.507 9.507 0 0 1-.878.859c-.517.5-1.23 1.353-2.02 2.048l-.151.131a6.116 6.116 0 0 1-.7.519 17.322 17.322 0 0 1-2.348 1.258c-6.291 2.8-13.632-2.262-16.117-7.75l-1.089-2.51a3.661 3.661 0 0 0-.412 3.707c.833 2.928.132 1.724.02 4.159.913.792.931 1.034 1.378 1.2.412.148 1.19.229 3.376.61l-.073 2.1 2.788 1.243.9-.587a14.552 14.552 0 0 1 1.818.479l1.033 1.223c2.991.743 5.863 1.373 8.639 1.9a103.6 103.6 0 0 0 41.486 0 158.03 158.03 0 0 0 8.639-1.9l1.034-1.223a14.458 14.458 0 0 1 1.818-.479l.9.587 2.789-1.243-.074-2.1c2.186-.381 2.964-.462 3.377-.61.446-.162.464-.4 1.378-1.2-.113-2.435-.813-1.231.02-4.159a3.663 3.663 0 0 0-.412-3.707l-1.091 2.51c-2.483 5.488-9.825 10.547-16.116 7.75a17.186 17.186 0 0 1-2.347-1.258 5.941 5.941 0 0 1-.7-.519l-.152-.131c-.789-.7-1.5-1.552-2.019-2.048a9.652 9.652 0 0 1-.879-.859c-.577-.675-1.2-1.2-1.8-1.866a11.47 11.47 0 0 0-1.001-.917z" />
                </g>
            </g>
            <path fill="#1d1d1b" d="M922.48 2836.277l4.994-8.373a71.819 71.819 0 0 1 18.948-2.35c9.548.294 37.015.734 37.015.734s7.2 3.526 8.079 4.994 3.084 5 3.084 5-.146 1.175-2.937 3.378-12.045 5.141-15.864 6.022-17.3 2.355-17.3 2.355h-8.993l-13.367-2.061z" />
            <path fill="#1d1d1b" d="M938.527 2775.87l-5.508 6.61-2.313 17.185s-2.865 14.542-2.865 14.983 6.831 4.516 7.381 4.516 5.178-5.287 5.178-5.287-.991-15.644-.881-16.525.881-20.711.881-20.711z" />
            <path fill="#1d1d1b" d="M977.966 2776.641s2.644-.991 2.754-.771 3.856 10.686 3.856 10.686l2.643 12.889.772 13.771-4.627 2.974-5.4-4.627 1.652-23.575z" />
            <path fill="#1d1d1b" d="M945.268 2812.324s14.9 1.769 26.571 0c4.645.248 5.308 1.023 5.419 1.576s5.336 1.6-.609 2.433-20.709 2.275-22.727 2.036-10.009-1.539-10.009-1.539l-3.81-1.784s3.297-2.913 5.165-2.722z" />
            <path fill="#1d1d1b" d="M944.256 2778.459s4.888 3.828 1.012 31.686-8.834-5.742-8.834-5.742.606-13.165 1.157-15.864 6.665-10.08 6.665-10.08z" />
            <path fill="#1d1d1b" d="M973.818 2818.537s-5.053-3.608-2.411-31.61 9.079 5.346 9.079 5.346-.024 13.179-.455 15.9-6.213 10.364-6.213 10.364z" />
        </g>
    </symbol>
    <symbol id="advantage-6" viewBox="0 0 135.841 124.039">
        <g transform="translate(-1538.463 -2755.036)">
            <path fill="#e41d23" d="M1605.835 2851.352l-3.018-3.372c-.988-1.126-2.032-2.193-3.045-3.294-2.067-2.151-4.164-4.274-6.321-6.321-8.563-8.3-18.109-15.314-26.874-23.594a113.477 113.477 0 0 1-12.226-13.544 77.864 77.864 0 0 1-5.209-7.65 40.427 40.427 0 0 1-2.157-4.191 18.59 18.59 0 0 1-.823-2.261 7.419 7.419 0 0 1-.325-2.474l.323-.011a6.663 6.663 0 0 0 .62 2.183 18.015 18.015 0 0 0 1.05 2.012 41.912 41.912 0 0 0 2.532 3.74c1.791 2.414 3.734 4.7 5.725 6.92 2.007 2.207 4.046 4.382 6.169 6.455 2.112 2.089 4.259 4.118 6.494 6.051 2.212 1.971 4.479 3.891 6.722 5.846l6.717 5.926c4.434 4.027 8.837 8.128 13.066 12.437 2.128 2.141 4.192 4.355 6.225 6.6 1 1.147 2.023 2.259 2.993 3.431l2.921 3.461c6.8 7.949 15.458 15.86 25.831 18.26a123.1 123.1 0 0 0 17.444 3.136c4.644.486 14.867.865 19.253-1.053l.136.324c-4.415 2.178-14.651 2.135-19.436 1.823a122.889 122.889 0 0 1-17.682-2.49c-10.702-2.353-19.811-10.383-27.105-18.35z"/>
            <path fill="none" stroke="#e41d23" stroke-miterlimit="10" stroke-width="0.547" d="M1605.835 2851.352l-3.018-3.372c-.988-1.126-2.032-2.193-3.045-3.294-2.067-2.151-4.164-4.274-6.321-6.321-8.563-8.3-18.109-15.314-26.874-23.594a113.477 113.477 0 0 1-12.226-13.544 77.864 77.864 0 0 1-5.209-7.65 40.427 40.427 0 0 1-2.157-4.191 18.59 18.59 0 0 1-.823-2.261 7.419 7.419 0 0 1-.325-2.474l.323-.011a6.663 6.663 0 0 0 .62 2.183 18.015 18.015 0 0 0 1.05 2.012 41.912 41.912 0 0 0 2.532 3.74c1.791 2.414 3.734 4.7 5.725 6.92 2.007 2.207 4.046 4.382 6.169 6.455 2.112 2.089 4.259 4.118 6.494 6.051 2.212 1.971 4.479 3.891 6.722 5.846l6.717 5.926c4.434 4.027 8.837 8.128 13.066 12.437 2.128 2.141 4.192 4.355 6.225 6.6 1 1.147 2.023 2.259 2.993 3.431l2.921 3.461c6.8 7.949 15.458 15.86 25.831 18.26a123.1 123.1 0 0 0 17.444 3.136c4.644.486 14.867.865 19.253-1.053l.136.324c-4.415 2.178-14.651 2.135-19.436 1.823a122.889 122.889 0 0 1-17.682-2.49c-10.702-2.353-19.811-10.383-27.105-18.35z"/>
            <path fill="#060605" fill-rule="evenodd" d="M1638.007 2863.081c13.409 2.987 26.255 3.876 31.1 2.214 7.641-2.621 5.093-11.543 1.014-14.173s-23.694-10.894-28.19-17.049c-1.069-7.537-4.657-33.076-5.584-42.369-.754-7.515-3.978-7.7-5.132-9.569l-.1.069c-3.346 2.615 1.955 9.375-1.587 8.758s-19.985-5.371-28.386-14.015c-8.195-8.429-4.544-17.047-8.4-20.25a.519.519 0 0 1-.314 0 .511.511 0 0 1-.178-.112c-2.5-2.468-2.815-1.1-6.153 1.8s-17.646 8.23-20.634 11.915-10.9 1.556-11.422 5.559 8.609 17.086 18.97 27.742 23.179 21.627 35.411 37.476c7.597 9.85 17.249 19.258 29.585 22.004z"/>
            <path fill="none" stroke="#060605" stroke-width="0.547" stroke-miterlimit="22.926" d="M1638.007 2863.081c13.409 2.987 26.255 3.876 31.1 2.214 7.641-2.621 5.093-11.543 1.014-14.173s-23.694-10.894-28.19-17.049c-1.069-7.537-4.657-33.076-5.584-42.369-.754-7.515-3.978-7.7-5.132-9.569l-.1.069c-3.346 2.615 1.955 9.375-1.587 8.758s-19.985-5.371-28.386-14.015c-8.195-8.429-4.544-17.047-8.4-20.25a.519.519 0 0 1-.314 0 .511.511 0 0 1-.178-.112c-2.5-2.468-2.815-1.1-6.153 1.8s-17.646 8.23-20.634 11.915-10.9 1.556-11.422 5.559 8.609 17.086 18.97 27.742 23.179 21.627 35.411 37.476c7.597 9.85 17.249 19.258 29.585 22.004z"/>
            <path fill="#1d1d1b" d="M1602.68 2859.37l-3.158-3.245c-1.034-1.085-2.121-2.107-3.18-3.165-2.155-2.064-4.339-4.1-6.58-6.053-8.9-7.936-18.735-14.549-27.84-22.46a114.636 114.636 0 0 1-19.063-22.011 40.658 40.658 0 0 1-2.331-4.1 18.558 18.558 0 0 1-.916-2.225 7.418 7.418 0 0 1-.429-2.46l.322-.024a6.664 6.664 0 0 0 .712 2.156 17.621 17.621 0 0 0 1.133 1.966 42.028 42.028 0 0 0 2.686 3.632 145.969 145.969 0 0 0 19.941 20.206c2.293 1.877 4.639 3.7 6.962 5.561l6.959 5.644c4.6 3.84 9.17 7.753 13.575 11.883 2.216 2.051 4.371 4.178 6.5 6.337 1.045 1.1 2.117 2.173 3.134 3.3l3.064 3.337c7.13 7.661 16.109 15.206 26.574 17.173a123.019 123.019 0 0 0 17.559 2.409c4.486.283 13.065.073 17.282-1.983l.149.318c-4.251 2.321-12.79 2.871-17.432 2.761a123.044 123.044 0 0 1-17.77-1.755c-10.794-1.901-20.233-9.547-27.853-17.202z"/>
            <path fill="none" stroke="#060605" stroke-miterlimit="10" stroke-width="1.436" d="M1602.68 2859.37l-3.158-3.245c-1.034-1.085-2.121-2.107-3.18-3.165-2.155-2.064-4.339-4.1-6.58-6.053-8.9-7.936-18.735-14.549-27.84-22.46a114.636 114.636 0 0 1-19.063-22.011 40.658 40.658 0 0 1-2.331-4.1 18.558 18.558 0 0 1-.916-2.225 7.418 7.418 0 0 1-.429-2.46l.322-.024a6.664 6.664 0 0 0 .712 2.156 17.621 17.621 0 0 0 1.133 1.966 42.028 42.028 0 0 0 2.686 3.632 145.969 145.969 0 0 0 19.941 20.206c2.293 1.877 4.639 3.7 6.962 5.561l6.959 5.644c4.6 3.84 9.17 7.753 13.575 11.883 2.216 2.051 4.371 4.178 6.5 6.337 1.045 1.1 2.117 2.173 3.134 3.3l3.064 3.337c7.13 7.661 16.109 15.206 26.574 17.173a123.019 123.019 0 0 0 17.559 2.409c4.486.283 13.065.073 17.282-1.983l.149.318c-4.251 2.321-12.79 2.871-17.432 2.761a123.044 123.044 0 0 1-17.77-1.755c-10.794-1.901-20.233-9.547-27.853-17.202z"/>
            <path fill="none" stroke="#1d1d1b" stroke-miterlimit="22.926" stroke-width="1.436" d="M0 0l6.532.023" transform="translate(1633.948 2811.289)"/>
            <path fill="none" stroke="#1d1d1b" stroke-miterlimit="22.926" stroke-width="1.436" d="M0 0l6.078.023" transform="translate(1636.112 2824.302)"/>
        </g>
    </symbol>
    <symbol id="advantage-7" viewBox="0 0 151.852 172.252">
        <g transform="translate(-264.013 -3150.404)">
            <path fill="none" stroke="#e41d23" stroke-linecap="round" stroke-linejoin="round" stroke-width="2.291" d="M277.682 3319.37s39.7 3.007 65.512 1.79c27.579-1.308 55.258-9.626 55.258-9.626"/>
            <path fill="#e32314" d="M414.719 3304.951l-17.771.514 4.723 11.7z"/>
            <path fill="none" stroke="#e41d23" stroke-linecap="round" stroke-linejoin="round" stroke-width="2.291" d="M414.719 3304.951l-17.771.514 4.723 11.7z"/>
            <path fill="#060605" d="M355.4 3175.441s3.917-3.144 1.352-5.392-3.761-10.929.3-15.123c0 0 10.989-9.282 18.668 1.945 0 0 .9 4.943 0 7.34 0 0-.3 1.946.449 2.847 0 0 2.109 3.443-1.2 3.291 0 0-.155 1.8-.606 2.1 0 0-.152 1.2-.6 1.495 0 0-.148 3-1.35 3l-3.314.3s4.216 3 5.42 7.041l2.1 4.64s4.672 5.541 6.025 9.887c0 0 2.711-4.2 3.463-5.244a8.167 8.167 0 0 0 .9-4.2c0-1.2-1.359-6.59-.454-7.787s.6-3.592.6-3.592.9-2.7 1.806.15l.45 1.946s1.357-.746 1.811-1.045 4.508-6.138 5.717-5.544c0 0 2.258-1.648 2.258 1.05s-.9 3.145-.9 3.145 1.355.15.451 2.1c0 0-1.5 3.293-1.954 4.639s-2.11 5.539-3.314 6.887-.906.452-1.807 3.6-3.916 12.278-5.871 14.673c0 0-.6 2.4-4.214 2.545 0 0-2.859-.748-3.314-2.843s-6.772-10.331-7.526-10.933c0 0-3.313 5.239-5.721 6.142 0 0-3.762 11.829-5.716 16.169s-.452 1.052-.452 1.052-1.811 8.534-3.018 10.331c0 0 9.64-1.2 22.433 9.282 0 0 12.645 6 9.333 12.729 0 0-8.13 9.887-9.333 11.23s-17.912 16.075-17.009 19.82a60.864 60.864 0 0 1 3.951 6.465 11.632 11.632 0 0 0 4.792 3.538c1.541-.126 5.489 5.117-1.792 4.838 0 0-6.854-1.66-10.269-3.754s-4.623-2.019-6.3-1.935-6.538-2.074-7.324-4.907c.881-3.832 3.173-5.038 3.173-5.038a5.477 5.477 0 0 1 1.027-.792c.824-1.025 1.742-1.884 2.353-1.616 0 0 5.421-4.787 7.076-8.083s9.334-19.019 12.046-20.365a52.572 52.572 0 0 0-7.078-.749c-3.355-.025-14.457-1.32-19.119-3.746 0 0-17.912 16.923-24.239 19.771 0 0-1.655 2.693-2.556 2.991 0 0-4.215 3.293-7.681 3.895 0 0-5.269 2.694-6.773 4.043s-15.054 11.977-16.41 12.581c0 0-6.173 7.485-6.626 9.13 0 0 2.264 2.248-.147 3.294 0 0-5.573 3.9-6.775 5.843s-2.863 4.491-2.26 5.988-3.462 7.039-5.421-.3c0 0 .3-7.638 1.36-11.681s1.653-4.791 1.051-6.438-.957-6.964 2.354-7.71a11.726 11.726 0 0 1 6.38.521s6.02-6.59 7.976-9.88 10.239-10.633 13.4-12.279 11.3-4.946 13.4-7.79 10.241-16.468 14.449-17.67c0 0-.749-13.626 7.231-16.769a13.159 13.159 0 0 0 6.471-7.041c2.109-5.24 2.26-24.706 4.518-27.849 0 0-.606-2.4-.151-2.994 0 0-10.689-.6-12.5-1.351 0 0-2.709-1.947-3.912 1.5 0 0-4.217 10.483-5.271 13.623 0 0-.3 5.69.152 7.492s1.351 4.79 2.254 5.688 1.812 2.544.6 2.692c0 0-2.709-.595-3.31-2.394 0 0-.452-2.692-2.561.3 0 0-7.528 13.629-7.077 8.083 0 0-3.163 3.594-1.656-.6 0 0-2.409.6-.9-2.249 0 0 4.212-8.086 1.5-5.539l-2.409 2.547s-2.558 1.5-.9-1.05a29.146 29.146 0 0 0 3.765-5.09 22.507 22.507 0 0 1 3.613-5.392c1.356-1.495 1.051-5.84 1.2-7.484s1.807-17.671 5.872-19.467 6.77-2.1 9.031-2.846 14-2.249 17.613-1.2c.015 0 6.041.151 6.946-.448z"/>
            <path stroke="#060605" stroke-miterlimit="22.926" stroke-width="1.795" d="M355.4 3175.441s3.917-3.144 1.352-5.392-3.761-10.929.3-15.123c0 0 10.989-9.282 18.668 1.945 0 0 .9 4.943 0 7.34 0 0-.3 1.946.449 2.847 0 0 2.109 3.443-1.2 3.291 0 0-.155 1.8-.606 2.1 0 0-.152 1.2-.6 1.495 0 0-.148 3-1.35 3l-3.314.3s4.216 3 5.42 7.041l2.1 4.64s4.672 5.541 6.025 9.887c0 0 2.711-4.2 3.463-5.244a8.167 8.167 0 0 0 .9-4.2c0-1.2-1.359-6.59-.454-7.787s.6-3.592.6-3.592.9-2.7 1.806.15l.45 1.946s1.357-.746 1.811-1.045 4.508-6.138 5.717-5.544c0 0 2.258-1.648 2.258 1.05s-.9 3.145-.9 3.145 1.355.15.451 2.1c0 0-1.5 3.293-1.954 4.639s-2.11 5.539-3.314 6.887-.906.452-1.807 3.6-3.916 12.278-5.871 14.673c0 0-.6 2.4-4.214 2.545 0 0-2.859-.748-3.314-2.843s-6.772-10.331-7.526-10.933c0 0-3.313 5.239-5.721 6.142 0 0-3.762 11.829-5.716 16.169s-.452 1.052-.452 1.052-1.811 8.534-3.018 10.331c0 0 9.64-1.2 22.433 9.282 0 0 12.645 6 9.333 12.729 0 0-8.13 9.887-9.333 11.23s-17.912 16.075-17.009 19.82a60.864 60.864 0 0 1 3.951 6.465 11.632 11.632 0 0 0 4.792 3.538c1.541-.126 5.489 5.117-1.792 4.838 0 0-6.854-1.66-10.269-3.754s-4.623-2.019-6.3-1.935-6.538-2.074-7.324-4.907c.881-3.832 3.173-5.038 3.173-5.038a5.477 5.477 0 0 1 1.027-.792c.824-1.025 1.742-1.884 2.353-1.616 0 0 5.421-4.787 7.076-8.083s9.334-19.019 12.046-20.365a52.572 52.572 0 0 0-7.078-.749c-3.355-.025-14.457-1.32-19.119-3.746 0 0-17.912 16.923-24.239 19.771 0 0-1.655 2.693-2.556 2.991 0 0-4.215 3.293-7.681 3.895 0 0-5.269 2.694-6.773 4.043s-15.054 11.977-16.41 12.581c0 0-6.173 7.485-6.626 9.13 0 0 2.264 2.248-.147 3.294 0 0-5.573 3.9-6.775 5.843s-2.863 4.491-2.26 5.988-3.462 7.039-5.421-.3c0 0 .3-7.638 1.36-11.681s1.653-4.791 1.051-6.438-.957-6.964 2.354-7.71a11.726 11.726 0 0 1 6.38.521s6.02-6.59 7.976-9.88 10.239-10.633 13.4-12.279 11.3-4.946 13.4-7.79 10.241-16.468 14.449-17.67c0 0-.749-13.626 7.231-16.769a13.159 13.159 0 0 0 6.471-7.041c2.109-5.24 2.26-24.706 4.518-27.849 0 0-.606-2.4-.151-2.994 0 0-10.689-.6-12.5-1.351 0 0-2.709-1.947-3.912 1.5 0 0-4.217 10.483-5.271 13.623 0 0-.3 5.69.152 7.492s1.351 4.79 2.254 5.688 1.812 2.544.6 2.692c0 0-2.709-.595-3.31-2.394 0 0-.452-2.692-2.561.3 0 0-7.528 13.629-7.077 8.083 0 0-3.163 3.594-1.656-.6 0 0-2.409.6-.9-2.249 0 0 4.212-8.086 1.5-5.539l-2.409 2.547s-2.558 1.5-.9-1.05a29.146 29.146 0 0 0 3.765-5.09 22.507 22.507 0 0 1 3.613-5.392c1.356-1.495 1.051-5.84 1.2-7.484s1.807-17.671 5.872-19.467 6.77-2.1 9.031-2.846 14-2.249 17.613-1.2c.015 0 6.041.151 6.946-.448z"/>
        </g>
    </symbol>
    <symbol id="advantage-8" viewBox="0 0 99.594 172.324">
        <g transform="translate(-908.703 -3149.776)">
            <path fill="#e41d23" fill-rule="evenodd" d="M908.7 3318.178l59.25 3.922 40.344-38.085-26.374-.982c.065.9.13 1.764.2 2.593l.108.07c-.017.206-.032.411-.045.617.954 2.04 1.1.7 1.355 3.034.074.667.14 1.573.176 2.589a13.946 13.946 0 0 1-.034 8.168 6.772 6.772 0 0 1-.814.051l-.073.155c-2.759.817-3.434.143-6.557-1.062-3.8-1.469-14.092-.443-12.468-8.516 9.515-2.835 6.3-2.583 8.839-6.507 1.145-1.765.11-.168 1.971-1.466l-8.213-.306-6.806 4.523c-.083 3.916-.221 7.865 0 11.73 1.388 2.21 1.359.649 1.99 3.3.691 2.9 1.733 9.843.7 12.707-3.056 1.328-3.929.648-7.69-.3-4.581-1.153-16.261 1.474-15.542-8.035 10.533-4.6 6.873-3.856 9.235-8.723 1.2-2.477-.184.382 2.976-2.855-.025-.593-.1-1.317-.216-2.145z"/>
            <path fill="#060605" fill-rule="evenodd" d="M966.672 3182.443c-2.134-1.949-1.163-4.583.168-8.011l1.293 1.4c-.371-4.816.427-10.615-.249-16.9a13.427 13.427 0 0 0-3.012-6.22c-4.4-4.871-8.14.36-13.012 1.7-12.444 3.422-7.636 15.525-7.565 19.307a25.765 25.765 0 0 0-3.826 2.6c-.8-6.5-2.6-13.256-7.921-14.875-7.193-2.191-11.381 5.4-12.184 11.153-3.177-.4-6.152-1.526-9.233-.914l-.049 3.01 8.66 1.752c2.046 17.837 11.63 19.152 18.183 10.831-.672 8.963-4.225 24.21 6.106 19.608 2.347 2.36 3.709 2.368 5.126 3.67 1.112 1.024 2.16 4.917 3.683 6.5 2.8 2.919 6.858 3.673 9.92 9.783-1.411 2.722-.535.949-2.476 3.117-3.727 4.165-12.169 21.345-13.595 25.519-2.8 8.194 4.247 32.4 4.541 39.326-3.16 3.237-1.775.378-2.976 2.855-2.362 4.867 1.3 4.126-9.235 8.723-.719 9.509 10.961 6.882 15.542 8.035 3.761.945 4.634 1.625 7.69.3 1.029-2.864-.013-9.8-.7-12.707-.631-2.647-.6-1.086-1.99-3.3-.533-9.357 1.032-19.212-1.15-27.876-1.82-7.219-4.071-7.162 3.571-13.4 1.788-1.457 1.976-2.558 3.642-3.984a3 3 0 0 1 .82 1.581c.176.537.261 1.254.474 1.947 1.234 4.025 6.922 18.491 8.458 25.187-2.932 2.323-1.485.085-2.766 2.062-2.538 3.924.676 3.672-8.839 6.507-1.624 8.073 8.663 7.047 12.468 8.516 3.123 1.2 3.8 1.879 6.557 1.062l.073-.155a6.772 6.772 0 0 0 .814-.051 13.946 13.946 0 0 0 .034-8.168 34.965 34.965 0 0 0-.176-2.589c-.259-2.336-.4-.994-1.355-3.034.013-.206.028-.411.045-.617l-.108-.07c-.483-6.053-.841-14.148-2.647-20.877-1.127-4.2-3.077-6.343-4.193-9.79 1.018-3.334 7.743-15.051 10.382-18.283 1.974-2.418 4.123-5.6 3.981-9.824-.591-17.5-22.012-11.05-18.344-24.205 1.792 1.633 3.515 2.877 5.432 4.7 2.357 2.246 2.5 3.55 6.441 2.388 2.358-6.482.259-7.25-1.149-12.85 8.118-.089 12.01-7.729 9.35-15.848-2.624-8-10.42-8.85-15-1.506-3.014 2.413.822-2.669-5.886 3.544z"/>
            <path fill="none" stroke="#060605" stroke-miterlimit="22.926" stroke-width="1.795" d="M966.672 3182.443c-2.134-1.949-1.163-4.583.168-8.011l1.293 1.4c-.371-4.816.427-10.615-.249-16.9a13.427 13.427 0 0 0-3.012-6.22c-4.4-4.871-8.14.36-13.012 1.7-12.444 3.422-7.636 15.525-7.565 19.307a25.765 25.765 0 0 0-3.826 2.6c-.8-6.5-2.6-13.256-7.921-14.875-7.193-2.191-11.381 5.4-12.184 11.153-3.177-.4-6.152-1.526-9.233-.914l-.049 3.01 8.66 1.752c2.046 17.837 11.63 19.152 18.183 10.831-.672 8.963-4.225 24.21 6.106 19.608 2.347 2.36 3.709 2.368 5.126 3.67 1.112 1.024 2.16 4.917 3.683 6.5 2.8 2.919 6.858 3.673 9.92 9.783-1.411 2.722-.535.949-2.476 3.117-3.727 4.165-12.169 21.345-13.595 25.519-2.8 8.194 4.247 32.4 4.541 39.326-3.16 3.237-1.775.378-2.976 2.855-2.362 4.867 1.3 4.126-9.235 8.723-.719 9.509 10.961 6.882 15.542 8.035 3.761.945 4.634 1.625 7.69.3 1.029-2.864-.013-9.8-.7-12.707-.631-2.647-.6-1.086-1.99-3.3-.533-9.357 1.032-19.212-1.15-27.876-1.82-7.219-4.071-7.162 3.571-13.4 1.788-1.457 1.976-2.558 3.642-3.984a3 3 0 0 1 .82 1.581c.176.537.261 1.254.474 1.947 1.234 4.025 6.922 18.491 8.458 25.187-2.932 2.323-1.485.085-2.766 2.062-2.538 3.924.676 3.672-8.839 6.507-1.624 8.073 8.663 7.047 12.468 8.516 3.123 1.2 3.8 1.879 6.557 1.062l.073-.155a6.772 6.772 0 0 0 .814-.051 13.946 13.946 0 0 0 .034-8.168 34.965 34.965 0 0 0-.176-2.589c-.259-2.336-.4-.994-1.355-3.034.013-.206.028-.411.045-.617l-.108-.07c-.483-6.053-.841-14.148-2.647-20.877-1.127-4.2-3.077-6.343-4.193-9.79 1.018-3.334 7.743-15.051 10.382-18.283 1.974-2.418 4.123-5.6 3.981-9.824-.591-17.5-22.012-11.05-18.344-24.205 1.792 1.633 3.515 2.877 5.432 4.7 2.357 2.246 2.5 3.55 6.441 2.388 2.358-6.482.259-7.25-1.149-12.85 8.118-.089 12.01-7.729 9.35-15.848-2.624-8-10.42-8.85-15-1.506-3.014 2.413.822-2.669-5.886 3.544z"/>
        </g>
    </symbol>
    <symbol id="advantage-9" viewBox="0 0 123.214 171.943">
        <g transform="translate(-1544.996 -3150.418)">
            <path fill="#060605" d="M1607.8 3221.05h-5.624s-8.364-8.419-10.671-10.284a2.112 2.112 0 0 1 0-3.573c3.893-1.434 10.671-5.868 10.671-5.868h1.3s5.05 13.807 5.48 15.53-1.156 4.195-1.156 4.195zm55.8 94.451c-1.223-.448-7.927-5.74-9.372-6.886s-4.9-5.879-4.9-5.879-7.211-13.913-7.932-21.227a23.671 23.671 0 0 1-1.728-10.755s.719-1.722-2.31-4.593-10.958-26.1-16.005-27.677l-.863-.864s1.527-7.656 2.1-8.8 4.385-15.867 4.385-15.867 8.8-1 9.228-1 8.355.974 9.074 1c1.333.04-3.237 1.94.619 1.135.387-.08 1.371-1.666 1.723-2.042.387-.414.064-.756.106-1.159a6.108 6.108 0 0 1 .063-1.311c.139-.409-.562-.834-.4-1.16.308-.626-.9-1.184-.9-1.184s.813-1.014-.341-1.3a39.7 39.7 0 0 0-5.907 0l-4.614.141-4.323.719-2.356-.968s5.7-5.315.48-10.22a5.554 5.554 0 0 1-1.15-4.162c.287-2.58 1.588-4.586.142-5.876a4.512 4.512 0 0 0-2.738-1.291s-1.776-1.03-1.213-.907c.873.19 1.611-.1 1.75-.637.1-.371.94-2.489.94-2.489s1.594-3.883.887-6.855c-.105-.443-.737-3.023-.737-3.023v-1.436s1.65-1.294.787-2.583-2.36-1.446-3.089-2.723a6.387 6.387 0 0 0-2.474-2.435c-1.008-.432-1.957-1.58-2.822-1.723s-.116-.289-2.133-1-1.715-1-3.734-1.722c-5.5-1.956-.187-.9-3.45 1.146-2.739 1.723-4.612.146-5.764-.14s-3.028-2.155-4.469-2.3a16.4 16.4 0 0 1-6.488-3.3c-1.3-1.29 1.439 2.866 1.439 2.866s-6.053-.639-7.786-3.115.723 3.834 7.355 4.549-2.162 1.434-2.162 1.434.43 1.147 3.028.864-2.019 2.007-3.316 2.007.865.717 1.874.717-1.586 3.009-1.586 3.009-1.01 1.869 1.586.72-.289 2.87-2.741 2.724 2.164 1.864-.143 5.164 1.01 3.588 1.3 3.873-.865 3.587-3.029 3.587c0 0-.064 1.863-2.7 1.863s4.432 1.435 5.586 0-.577 1.579-2.309 1.579 3.607 3.3 3.893 0c.009-.086.015-.159.021-.228-.012 1.264.164 3.894 1.567 4.241 2.306.577 1.441 3.015 1.441 3.015s1.44 1.577 2.595 0c.962-1.318 4.038-.338 5.026-.647-.774.879-2.8 3.084-3.726 3.084-1.155 0-15.717 8.46-17.089 10.757s-4.542 2.294-2.955 4.3 18.456 17.066 19.9 16.777 1.45 1.584 1.154 2.01c-7.533 7.679-1.85 11.856-2.543 19.461-.327 1.383-2.646 16.68-3.367 17.11s-1.587.285-2.884 0-5.913-5.594-23.937-7.315c0 0-3.028-.86-4.036-2.154s-3.895-3.726-4.47-4.875-6.489.576-7.5 5.307-5.048 5.307-5.913 7.03-2.018 8.03-.866 8.891 3.172 0 3.172 0 7.067-5.593 12.112-6.6 4.328-.858 5.769-.429 24.513 11.474 24.513 11.474 7.065 4.445 9.66 1.864 11.393-14.2 12.259-20.8l1.008-.572s13.883 18.519 14.172 18.662 1.648 12.157 6.3 18.771a115.873 115.873 0 0 1 7.357 11.617s1.3 4.736 0 8.318-2.164 4.158.576 5.45 8.075.575 10.236 2.01 12.689 1.29 13.557-1-.541-2.951-3.47-4.018z"/>
            <path fill="none" stroke="#060605" stroke-miterlimit="22.926" stroke-width="1.795" d="M1607.8 3221.05h-5.624s-8.364-8.419-10.671-10.284a2.112 2.112 0 0 1 0-3.573c3.893-1.434 10.671-5.868 10.671-5.868h1.3s5.05 13.807 5.48 15.53-1.156 4.195-1.156 4.195zm55.8 94.451c-1.223-.448-7.927-5.74-9.372-6.886s-4.9-5.879-4.9-5.879-7.211-13.913-7.932-21.227a23.671 23.671 0 0 1-1.728-10.755s.719-1.722-2.31-4.593-10.958-26.1-16.005-27.677l-.863-.864s1.527-7.656 2.1-8.8 4.385-15.867 4.385-15.867 8.8-1 9.228-1 8.355.974 9.074 1c1.333.04-3.237 1.94.619 1.135.387-.08 1.371-1.666 1.723-2.042.387-.414.064-.756.106-1.159a6.108 6.108 0 0 1 .063-1.311c.139-.409-.562-.834-.4-1.16.308-.626-.9-1.184-.9-1.184s.813-1.014-.341-1.3a39.7 39.7 0 0 0-5.907 0l-4.614.141-4.323.719-2.356-.968s5.7-5.315.48-10.22a5.554 5.554 0 0 1-1.15-4.162c.287-2.58 1.588-4.586.142-5.876a4.512 4.512 0 0 0-2.738-1.291s-1.776-1.03-1.213-.907c.873.19 1.611-.1 1.75-.637.1-.371.94-2.489.94-2.489s1.594-3.883.887-6.855c-.105-.443-.737-3.023-.737-3.023v-1.436s1.65-1.294.787-2.583-2.36-1.446-3.089-2.723a6.387 6.387 0 0 0-2.474-2.435c-1.008-.432-1.957-1.58-2.822-1.723s-.116-.289-2.133-1-1.715-1-3.734-1.722c-5.5-1.956-.187-.9-3.45 1.146-2.739 1.723-4.612.146-5.764-.14s-3.028-2.155-4.469-2.3a16.4 16.4 0 0 1-6.488-3.3c-1.3-1.29 1.439 2.866 1.439 2.866s-6.053-.639-7.786-3.115.723 3.834 7.355 4.549-2.162 1.434-2.162 1.434.43 1.147 3.028.864-2.019 2.007-3.316 2.007.865.717 1.874.717-1.586 3.009-1.586 3.009-1.01 1.869 1.586.72-.289 2.87-2.741 2.724 2.164 1.864-.143 5.164 1.01 3.588 1.3 3.873-.865 3.587-3.029 3.587c0 0-.064 1.863-2.7 1.863s4.432 1.435 5.586 0-.577 1.579-2.309 1.579 3.607 3.3 3.893 0c.009-.086.015-.159.021-.228-.012 1.264.164 3.894 1.567 4.241 2.306.577 1.441 3.015 1.441 3.015s1.44 1.577 2.595 0c.962-1.318 4.038-.338 5.026-.647-.774.879-2.8 3.084-3.726 3.084-1.155 0-15.717 8.46-17.089 10.757s-4.542 2.294-2.955 4.3 18.456 17.066 19.9 16.777 1.45 1.584 1.154 2.01c-7.533 7.679-1.85 11.856-2.543 19.461-.327 1.383-2.646 16.68-3.367 17.11s-1.587.285-2.884 0-5.913-5.594-23.937-7.315c0 0-3.028-.86-4.036-2.154s-3.895-3.726-4.47-4.875-6.489.576-7.5 5.307-5.048 5.307-5.913 7.03-2.018 8.03-.866 8.891 3.172 0 3.172 0 7.067-5.593 12.112-6.6 4.328-.858 5.769-.429 24.513 11.474 24.513 11.474 7.065 4.445 9.66 1.864 11.393-14.2 12.259-20.8l1.008-.572s13.883 18.519 14.172 18.662 1.648 12.157 6.3 18.771a115.873 115.873 0 0 1 7.357 11.617s1.3 4.736 0 8.318-2.164 4.158.576 5.45 8.075.575 10.236 2.01 12.689 1.29 13.557-1-.541-2.951-3.47-4.018z"/>
            <path fill="#e41d23" d="M1647.252 3270.191a7.715 7.715 0 1 1-7.715-7.781 7.748 7.748 0 0 1 7.715 7.781"/>
            <path fill="#e41d23" d="M1621.654 3237.233a8.342 8.342 0 1 1-8.343-8.413 8.378 8.378 0 0 1 8.343 8.413"/>
            <path fill="#e41d23" d="M1660.641 3310.3a7.576 7.576 0 1 1-7.576-7.64 7.607 7.607 0 0 1 7.576 7.64"/>
        </g>
    </symbol>
    <symbol id="carbonage" viewBox="0 0 471.331 236.048">
        <path fill="#f1f2f2" d="M1289.726 1555.039l-.394.959a15.483 15.483 0 0 1-14.6 10.056 16.437 16.437 0 0 1-.141-32.87 15.529 15.529 0 0 1 14.61 9.723l.4.931 5.562-2.307-.393-.947a21.624 21.624 0 0 0-20.179-13.129 22.164 22.164 0 1 0 .069 44.328 21.491 21.491 0 0 0 20.316-13.4l.4-.946z" transform="translate(-1252.389 -1430.751)"/>
        <path fill="#f1f2f2" d="M1336.792 1528.288v6.85a20.556 20.556 0 0 0-15.987-7.683 22.165 22.165 0 0 0 0 44.328 20.585 20.585 0 0 0 15.987-7.621v6.79h5.933v-42.664zm.414 21.366a16.159 16.159 0 1 1-16.262-16.47 16.157 16.157 0 0 1 16.262 16.471z" transform="translate(-1252.316 -1430.751)"/>
        <path fill="#f1f2f2" d="M1374.872 1530.3a16.155 16.155 0 0 0-8.917-2.431 13.461 13.461 0 0 0-10.987 4.928v-4.511h-5.868v42.664h6.006v-24.837c0-7.835 4-12.513 10.7-12.513a8.739 8.739 0 0 1 5.578 1.884l.856.623 3.573-5.254z" transform="translate(-1252.238 -1430.75)"/>
        <path fill="#f1f2f2" d="M1402.768 1527.471a20.672 20.672 0 0 0-15.912 7.487v-17.415h-5.941v53.425h5.872v-6.7a20.7 20.7 0 0 0 15.981 7.531 22.086 22.086 0 0 0 21.993-22.128 21.862 21.862 0 0 0-21.993-22.2zm15.849 22.2a16.126 16.126 0 1 1-32.248 0 16.193 16.193 0 0 1 16.261-16.471c8.965 0 15.987 7.234 15.987 16.47z" transform="translate(-1252.188 -1430.766)"/>
        <path fill="#f1f2f2" d="M1451.342 1527.455a22.164 22.164 0 0 0 0 44.328 22.154 22.154 0 0 0 22.132-22.129 21.93 21.93 0 0 0-22.132-22.199zm15.984 22.2a16.024 16.024 0 1 1-15.984-16.47c8.964-.001 15.985 7.233 15.985 16.47z" transform="translate(-1252.112 -1430.751)"/>
        <path fill="#f1f2f2" d="M1499.915 1527.455a18.361 18.361 0 0 0-14.6 6.641v-5.808h-5.865v42.664h6.006v-23.8a13.662 13.662 0 0 1 13.97-13.97c8.361 0 13.555 5.326 13.555 13.9v23.868h6.006v-23.8c.002-11.962-7.487-19.695-19.072-19.695z" transform="translate(-1252.034 -1430.751)"/>
        <path fill="#f1f2f2" d="M1581.063 1528.288v6.848a20.55 20.55 0 0 0-15.983-7.681 22.165 22.165 0 0 0 0 44.328 20.575 20.575 0 0 0 15.983-7.621v6.79H1587v-42.664zm.418 21.366a16.161 16.161 0 1 1-16.263-16.47 16.158 16.158 0 0 1 16.264 16.471z" transform="translate(-1251.934 -1430.751)"/>
        <path fill="#f1f2f2" d="M1629.065 1528.288v6.85a20.55 20.55 0 0 0-15.987-7.683 22.165 22.165 0 0 0 0 44.328 20.581 20.581 0 0 0 15.987-7.621v5.07c0 9.687-5.885 15.707-15.36 15.707-6.837 0-11.288-2.679-14.436-8.687l-.45-.859-5.7 2.6.527.968c4.382 8.052 10.567 11.642 20.059 11.642 12.938 0 21.3-8.442 21.3-21.506v-40.806zm.415 21.366a16.16 16.16 0 1 1-16.263-16.47 16.158 16.158 0 0 1 16.263 16.471z" transform="translate(-1251.859 -1430.751)"/>
        <path fill="#f1f2f2" d="M1684.821 1549.169c0-12.582-9.132-21.714-21.715-21.714-12.615 0-22.129 9.6-22.129 22.338 0 12.947 9.187 21.99 22.339 21.99 9.619 0 16.5-4.5 20.446-13.382l.409-.917-5.435-2.553-.4 1.008c-2.681 6.661-7.873 10.184-15.015 10.184-8.935 0-15.39-5.631-16.375-14.125h37.88zm-37.644-2.9a16.224 16.224 0 0 1 15.929-13.151c8.316 0 14.294 5.122 15.506 13.151z" transform="translate(-1251.781 -1430.751)"/>
        <g transform="translate(277.335 20.65)">
            <path fill="#231f20" d="M1616.377 1646.267a20.507 20.507 0 0 1-10.258-2.739l-66.572-38.435a20.573 20.573 0 0 1-10.256-17.763v-76.873a20.574 20.574 0 0 1 10.256-17.763l66.572-38.435a20.571 20.571 0 0 1 20.514 0l66.57 38.435a20.568 20.568 0 0 1 10.256 17.763v76.873a20.568 20.568 0 0 1-10.256 17.763l-66.57 38.435a20.508 20.508 0 0 1-10.256 2.739zm0-188.6a14.374 14.374 0 0 0-7.18 1.918l-66.572 38.435a14.4 14.4 0 0 0-7.18 12.436v76.873a14.405 14.405 0 0 0 7.18 12.437l66.572 38.435a14.415 14.415 0 0 0 14.363 0l66.57-38.435a14.4 14.4 0 0 0 7.181-12.437v-76.873a14.4 14.4 0 0 0-7.181-12.436l-66.57-38.435a14.377 14.377 0 0 0-7.185-1.918z" transform="translate(-1529.291 -1451.52)"/>
        </g>
        <g transform="translate(277.335 20.65)">
            <path fill="#1b75bc" d="M1616.377 1646.267a20.507 20.507 0 0 1-10.258-2.739l-66.572-38.435a20.573 20.573 0 0 1-10.256-17.763v-76.873a20.574 20.574 0 0 1 10.256-17.763l66.572-38.435a20.571 20.571 0 0 1 20.514 0l66.57 38.435a20.568 20.568 0 0 1 10.256 17.763v76.873a20.568 20.568 0 0 1-10.256 17.763l-66.57 38.435a20.508 20.508 0 0 1-10.256 2.739zm0-188.6a14.374 14.374 0 0 0-7.18 1.918l-66.572 38.435a14.4 14.4 0 0 0-7.18 12.436v76.873a14.405 14.405 0 0 0 7.18 12.437l66.572 38.435a14.415 14.415 0 0 0 14.363 0l66.57-38.435a14.4 14.4 0 0 0 7.181-12.437v-76.873a14.4 14.4 0 0 0-7.181-12.436l-66.57-38.435a14.377 14.377 0 0 0-7.185-1.918z" transform="translate(-1529.291 -1451.52)"/>
        </g>
        <g transform="translate(458 61.825)">
            <path fill="#fff" d="M1719.929 1605.029a20.574 20.574 0 0 1-10.256-17.763v-76.873a20.574 20.574 0 0 1 10.256-17.763l3.076 5.326a14.4 14.4 0 0 0-7.181 12.437v76.873A14.4 14.4 0 0 0 1723 1599.7z" transform="translate(-1709.673 -1492.63)"/>
        </g>
        <g transform="translate(263.832)">
            <path fill="#fff" d="M1526.066 1489.841a20.484 20.484 0 0 1-10.257-2.741l3.075-5.325a14.392 14.392 0 0 0 14.361 0l66.572-38.436A14.4 14.4 0 0 0 1607 1430.9h6.152a20.562 20.562 0 0 1-10.257 17.763l-66.572 38.435a20.5 20.5 0 0 1-10.257 2.743z" transform="translate(-1515.809 -1430.902)"/>
        </g>
        <g transform="translate(367.667)">
            <path fill="#fff" d="M1706.566 1489.841a20.5 20.5 0 0 1-10.256-2.741l-66.572-38.435a20.565 20.565 0 0 1-10.256-17.763h6.151a14.4 14.4 0 0 0 7.18 12.436l66.573 38.436a14.4 14.4 0 0 0 14.361 0l3.076 5.325a20.515 20.515 0 0 1-10.257 2.742z" transform="translate(-1619.482 -1430.902)"/>
        </g>
        <g transform="translate(263.832 177.109)">
            <path fill="#fff" d="M1613.15 1666.673H1607a14.4 14.4 0 0 0-7.18-12.437l-66.573-38.435a14.393 14.393 0 0 0-14.361 0l-3.075-5.326a20.558 20.558 0 0 1 20.512 0l66.572 38.435a20.563 20.563 0 0 1 10.255 17.763z" transform="translate(-1515.809 -1607.734)"/>
        </g>
        <g transform="translate(367.667 177.11)">
            <path fill="#fff" d="M1625.633 1666.673h-6.151a20.566 20.566 0 0 1 10.256-17.763l66.572-38.435a20.563 20.563 0 0 1 20.512 0l-3.076 5.326a14.4 14.4 0 0 0-14.361 0l-66.573 38.435a14.4 14.4 0 0 0-7.179 12.437z" transform="translate(-1619.482 -1607.735)"/>
        </g>
    </symbol>
    <symbol id="bullet-1" viewBox="0 0 221.13 34.305">
        <g transform="translate(-604.034 -1217.329)">
            <circle fill="none" stroke="#ed1c24" stroke-miterlimit="10" stroke-width="3" cx="9.876" cy="9.876" r="9.876" transform="translate(803.912 1228.156)"/>
            <path fill="none" stroke="#ed1c24" stroke-miterlimit="10" stroke-width="3" d="M922.1 1830.078s98.332 35.946 178.991 5.831" transform="translate(-297.181 -597.877)"/>
            <circle fill="#ec008c" cx="10.894" cy="10.894" r="10.894" transform="translate(604.034 1217.329)"/>
        </g>
    </symbol>
    <symbol id="bullet-2" viewBox="0 0 109.082 62.759">
        <g transform="translate(-732.065 -1119.64)">
            <circle fill="none" stroke="#ed1c24" stroke-miterlimit="10" stroke-width="3" cx="9.876" cy="9.876" r="9.876" class="cls-1" transform="translate(819.895 1161.147)"/>
            <circle fill="#ef4136" cx="10.894" cy="10.894" r="10.894" class="cls-2" transform="translate(732.065 1119.64)"/>
            <path fill="none" stroke="#ed1c24" stroke-miterlimit="10" stroke-width="3" d="M1114.511 1685.726s30.395 29.637 68.728 30.932" class="cls-1" transform="translate(-362.9 -548.572)"/>
        </g>
    </symbol>
    <symbol id="bullet-4" viewBox="0 0 272.054 113.847">
        <g transform="translate(-679.711 -873.281)">
            <circle fill="none" stroke="#ed1c24" stroke-miterlimit="10" stroke-width="3" cx="9.876" cy="9.876" r="9.876" transform="translate(930.513 965.876)"/>
            <circle fill="#c49a6c" stroke="#ed1c24" stroke-miterlimit="10" stroke-width="3" cx="9.876" cy="9.876" r="9.876" transform="translate(681.211 874.781)"/>
            <path fill="none" stroke="#ed1c24" stroke-miterlimit="10" stroke-width="3" d="M1037.591 1303.671s157.354 24.689 232.165 83.464" transform="translate(-336.627 -418.076)"/>
        </g>
    </symbol>
    <symbol id="bullet-5" viewBox="0 0 363.209 76.086">
        <g transform="translate(-573.343 -786.546)">
            <circle fill="#600808" stroke="#ed1c24" stroke-miterlimit="10" stroke-width="3" cx="9.876" cy="9.876" r="9.876" class="cls-1" transform="translate(574.843 788.046)"/>
            <path fill="none" stroke="#ed1c24" stroke-miterlimit="10" stroke-width="3" d="M875.82 1168.51s161.33-16.287 322.659 50.871" transform="translate(-281.373 -371.317)"/>
            <circle fill="none" stroke="#ed1c24" stroke-miterlimit="10" stroke-width="3" cx="9.876" cy="9.876" r="9.876" transform="translate(915.299 841.379)"/>
        </g>
    </symbol>
    <symbol id="vk" viewBox="0 0 44.838 25.58">
        <path fill="#e22929" fill-rule="evenodd" d="M196.517 753.131h2.68a2.262 2.262 0 0 0 1.223-.535 1.963 1.963 0 0 0 .368-1.177s-.052-3.6 1.616-4.126c1.646-.522 3.759 3.476 6 5.013a4.244 4.244 0 0 0 2.98.908l5.988-.083s3.133-.194 1.647-2.656c-.122-.2-.865-1.822-4.452-5.152-3.755-3.484-3.252-2.921 1.271-8.949 2.754-3.671 3.855-5.912 3.511-6.872-.327-.914-2.354-.673-2.354-.673l-6.742.042a1.532 1.532 0 0 0-.87.153 1.894 1.894 0 0 0-.6.724 39.1 39.1 0 0 1-2.49 5.257c-3 5.1-4.2 5.367-4.693 5.05-1.142-.738-.857-2.963-.857-4.545 0-4.941.75-7-1.459-7.534a11.569 11.569 0 0 0-3.147-.313c-2.406-.024-4.442.008-5.594.573-.767.376-1.359 1.212-1 1.261a3.023 3.023 0 0 1 1.99 1 6.507 6.507 0 0 1 .667 3.051s.4 5.815-.927 6.538c-.909.495-2.156-.517-4.832-5.142a43.1 43.1 0 0 1-2.407-4.987 2 2 0 0 0-.556-.752 2.791 2.791 0 0 0-1.035-.418l-6.407.042s-.962.027-1.315.445c-.314.372-.025 1.142-.025 1.142s5.015 11.734 10.7 17.648a15.391 15.391 0 0 0 11.122 5.067z" transform="translate(-174.579 -727.658)"/>
    </symbol>
   <symbol id="facebook" viewBox="0 0 22.309 42.958">
       <path fill="#e22929" d="M284.06 761.927v-19.6h6.577l.985-7.637h-7.562v-4.87c0-2.211.613-3.718 3.784-3.718h4.044v-6.83a54.067 54.067 0 0 0-5.893-.3c-5.83 0-9.822 3.559-9.822 10.1v5.628h-6.594v7.637h6.594v19.6z" transform="translate(-269.579 -718.969)"/>
   </symbol>
    <symbol id="instagramm" viewBox="0 0 34.864 34.864">
        <g transform="translate(-342.05 -722.211)">
            <path fill="#e22929" d="M359.482 725.352c4.655 0 5.206.018 7.044.1a9.648 9.648 0 0 1 3.237.6 5.774 5.774 0 0 1 3.308 3.308 9.635 9.635 0 0 1 .6 3.237c.084 1.838.1 2.39.1 7.044s-.018 5.206-.1 7.044a9.623 9.623 0 0 1-.6 3.237 5.775 5.775 0 0 1-3.308 3.308 9.641 9.641 0 0 1-3.237.6c-1.838.083-2.389.1-7.044.1s-5.206-.018-7.044-.1a9.653 9.653 0 0 1-3.237-.6 5.775 5.775 0 0 1-3.308-3.308 9.622 9.622 0 0 1-.6-3.237c-.084-1.838-.1-2.389-.1-7.044s.018-5.206.1-7.044a9.634 9.634 0 0 1 .6-3.237 5.774 5.774 0 0 1 3.308-3.308 9.66 9.66 0 0 1 3.237-.6c1.838-.084 2.39-.1 7.044-.1m0-3.141c-4.734 0-5.328.021-7.187.1a12.794 12.794 0 0 0-4.231.811 8.905 8.905 0 0 0-5.1 5.1 12.8 12.8 0 0 0-.811 4.231c-.085 1.859-.105 2.453-.105 7.187s.02 5.328.105 7.187a12.8 12.8 0 0 0 .811 4.232 8.913 8.913 0 0 0 5.1 5.1 12.8 12.8 0 0 0 4.231.81c1.859.085 2.453.105 7.187.105s5.328-.02 7.187-.105a12.8 12.8 0 0 0 4.232-.81 8.92 8.92 0 0 0 5.1-5.1 12.8 12.8 0 0 0 .81-4.232c.085-1.859.105-2.453.105-7.187s-.02-5.328-.105-7.187a12.8 12.8 0 0 0-.81-4.231 8.913 8.913 0 0 0-5.1-5.1 12.8 12.8 0 0 0-4.232-.811c-1.859-.084-2.453-.1-7.187-.1z" />
            <path fill="#e22929" d="M359.482 730.692a8.951 8.951 0 1 0 8.952 8.951 8.95 8.95 0 0 0-8.952-8.951zm0 14.762a5.81 5.81 0 1 1 5.811-5.811 5.811 5.811 0 0 1-5.811 5.811z" />
            <circle fill="#e22929" cx="2.092" cy="2.092" r="2.092" transform="translate(366.695 728.246)"/>
        </g>
    </symbol>
</svg>