<svg xmlns="http://www.w3.org/2000/svg">
    <symbol id="sneaker" viewBox="0 0 63.516 40.284">
        <g transform="translate(-171.772 -54.137)">
            <path fill="#e54f49" stroke="#e54f49" d="M233.07 90.866a6.779 6.779 0 0 1-1.882.584 17.885 17.885 0 0 1-1.945.233 34.816 34.816 0 0 1-3.917.008 54 54 0 0 1-7.81-.984 46.36 46.36 0 0 1-7.667-2.215l-1.854-.753c-.612-.254-1.234-.476-1.85-.716a85.802 85.802 0 0 0-3.738-1.282c-5.011-1.629-10.16-2.559-15.249-4.143a50.137 50.137 0 0 1-7.488-3 34.478 34.478 0 0 1-3.558-2.027 17.871 17.871 0 0 1-1.674-1.245 8.349 8.349 0 0 1-.769-.739 3.313 3.313 0 0 1-.612-.92l.126-.068a2.943 2.943 0 0 0 .672.748 7.934 7.934 0 0 0 .809.6 18.653 18.653 0 0 0 1.734.994c1.181.61 2.4 1.138 3.619 1.635s2.459.953 3.705 1.365 2.491.807 3.753 1.139c1.261.353 2.533.675 3.8 1.015l3.817 1.047c2.543.738 5.087 1.509 7.6 2.4 1.26.436 2.51.914 3.754 1.411.619.261 1.242.5 1.856.78l1.832.806a45.941 45.941 0 0 0 7.489 2.4 53.759 53.759 0 0 0 7.71 1.273 34.513 34.513 0 0 0 3.882.143 17.71 17.71 0 0 0 1.928-.143 6.547 6.547 0 0 0 1.857-.484z"/>
            <path fill="000" d="M206.17 56.223c.837.492 2.131-.1 3.987 2.685 2.293 3.446 9 12.7 10.981 15.43s10.63 6.391 12.428 7.556 2.922 5.12-.447 6.282-15.516-.492-23.573-4.168-15.33-5.319-21.577-7.348-12.523-5.263-13.153-6.937 2.9-2.478 3.293-4.538 4.858-7.1 5.556-8.93.534-2.424 2.023-1.976a.2.2 0 0 0 .213-.058c2.168.457 2.537 4.585 7.48 6.19 5.068 1.646 12.46.108 13.966-.383s-1.963-2.042-1.2-3.756z"/>
            <path fill="000" d="M230.868 93.542a7.018 7.018 0 0 1-1.865.564c-.637.114-1.28.185-1.924.235a36.72 36.72 0 0 1-3.869.052 57.451 57.451 0 0 1-7.7-.805 47.838 47.838 0 0 1-7.54-1.924l-1.821-.653c-.6-.216-1.214-.411-1.82-.618a93.107 93.107 0 0 0-3.682-1.1c-4.933-1.4-10.007-2.171-15.015-3.54a51.727 51.727 0 0 1-7.358-2.621 34.57 34.57 0 0 1-3.494-1.781 17.591 17.591 0 0 1-1.643-1.1 4.589 4.589 0 0 1-1.364-1.467l.121-.067a2.815 2.815 0 0 0 .669.66 8 8 0 0 0 .8.523 19.1 19.1 0 0 0 1.705.87c1.161.534 2.357.993 3.56 1.427s2.418.829 3.644 1.186 2.452.7 3.692.986c1.242.3 2.494.579 3.745.87l3.757.9c2.5.634 5.006 1.294 7.482 2.061 1.24.375 2.47.791 3.694 1.217.609.226 1.221.441 1.826.676l1.8.7a47.181 47.181 0 0 0 7.364 2.1 57.01 57.01 0 0 0 7.6 1.067 36.575 36.575 0 0 0 3.832.085 19.27 19.27 0 0 0 1.907-.154 6.828 6.828 0 0 0 1.838-.471z"/>
        </g>
    </symbol>
    <symbol id="title" viewBox="0 0 177.038 37.032">
        <g transform="translate(-272.814 -52.824)">
            <path fill="#231f20" stroke="#231f20" d="M274.479 89.314q-1.341 0-1.081-1.277l4.8-22.588a1.463 1.463 0 0 1 1.6-1.277q1.341 0 1.082 1.277l-4.8 22.588a1.462 1.462 0 0 1-1.601 1.277z" class="cls-1" data-name="Path 4"/>
            <path fill="#231f20" stroke="#231f20" d="M303.018 89.314a1.21 1.21 0 0 1-.995-.5l-15.059-19.99-4.09 19.213a1.462 1.462 0 0 1-1.6 1.277q-1.341 0-1.082-1.277l4.782-22.524a1.5 1.5 0 0 1 1.558-1.363 1.174 1.174 0 0 1 .974.52l15.059 19.992 4.089-19.235a1.492 1.492 0 0 1 1.623-1.277q1.341 0 1.06 1.277l-4.782 22.524a1.472 1.472 0 0 1-1.537 1.363z"/>
            <path fill="#231f20" stroke="#231f20" d="M326.386 89.314h-16.66q-1.343 0-1.082-1.277a1.491 1.491 0 0 1 1.622-1.276h16.661a5.024 5.024 0 0 0 2.618-.736 3.194 3.194 0 0 0 1.623-2.1l.67-3.072a2.007 2.007 0 0 0-.757-2.1 3.619 3.619 0 0 0-2.315-.736h-11.684a5.479 5.479 0 0 1-4.024-1.493 3.972 3.972 0 0 1-1.125-3.916l.649-3.05a6.3 6.3 0 0 1 2.791-3.917 8.049 8.049 0 0 1 4.652-1.471h11.683q1.342 0 1.082 1.277a1.491 1.491 0 0 1-1.622 1.276h-11.684a4.99 4.99 0 0 0-2.6.736 3.257 3.257 0 0 0-1.622 2.1l-.649 3.05a1.986 1.986 0 0 0 .735 2.1 3.514 3.514 0 0 0 2.294.757h11.683a5.6 5.6 0 0 1 4.046 1.472 3.951 3.951 0 0 1 1.147 3.916l-.671 3.072a6.261 6.261 0 0 1-2.856 3.96 8.218 8.218 0 0 1-4.605 1.428z"/>
            <path fill="#231f20" stroke="#231f20" d="M354.838 89.314h-11.684a5.605 5.605 0 0 1-4.046-1.472 3.954 3.954 0 0 1-1.147-3.916l3.051-14.345a6.341 6.341 0 0 1 2.791-3.916 8.072 8.072 0 0 1 4.674-1.493h11.684a5.633 5.633 0 0 1 4.067 1.493 3.893 3.893 0 0 1 1.126 3.916L362.3 83.926a6.264 6.264 0 0 1-2.856 3.96 8.224 8.224 0 0 1-4.606 1.428zm7.833-19.733a2.012 2.012 0 0 0-.736-2.12 3.613 3.613 0 0 0-2.315-.736h-11.684a4.817 4.817 0 0 0-2.6.757 3.273 3.273 0 0 0-1.645 2.1l-3.051 14.345a2.025 2.025 0 0 0 .758 2.1 3.579 3.579 0 0 0 2.293.736h11.684a5.024 5.024 0 0 0 2.625-.738 3.191 3.191 0 0 0 1.623-2.1z"/>
            <path fill="#231f20" stroke="#231f20" d="M388.289 89.314h-16.682a5.6 5.6 0 0 1-4.046-1.472 3.95 3.95 0 0 1-1.147-3.916l3.938-18.477a1.462 1.462 0 0 1 1.6-1.277q1.341 0 1.082 1.277L369.1 83.926a2.025 2.025 0 0 0 .757 2.1 3.579 3.579 0 0 0 2.293.736h16.682q1.341 0 1.061 1.276a1.462 1.462 0 0 1-1.604 1.276z"/>
            <path fill="#231f20" stroke="#231f20" d="M411.548 89.314h-17.807q-1.342 0-1.082-1.277l4.8-22.588a1.463 1.463 0 0 1 1.6-1.277h16.661q1.341 0 1.082 1.277a1.492 1.492 0 0 1-1.623 1.276h-15.315l-1.19 5.691h15.319q1.341 0 1.06 1.276a1.457 1.457 0 0 1-1.6 1.255h-15.32l-2.51 11.814h16.466q1.341 0 1.06 1.276a1.462 1.462 0 0 1-1.601 1.277z"/>
            <path fill="#f14942" stroke="#f14942" d="M441.267 89.314a1.492 1.492 0 0 1-1.422-.8l-7.6-14.806-13.913 14.802a2.286 2.286 0 0 1-1.731.8q-1.977 0-1.607-1.824a2.288 2.288 0 0 1 .587-1.051l14.992-15.945-7.326-14.249a1.757 1.757 0 0 1-.155-1.051 2.168 2.168 0 0 1 2.38-1.824 1.426 1.426 0 0 1 1.391.8l6.737 13.109 12.3-13.105a2.382 2.382 0 0 1 1.761-.8q1.979 0 1.577 1.824a2.283 2.283 0 0 1-.587 1.051l-13.38 14.245 8.191 15.949a1.757 1.757 0 0 1 .154 1.051 2.125 2.125 0 0 1-2.349 1.824z"/>
        </g>
    </symbol>
    <symbol id="time" viewBox="0 0 112.879 93.542">
        <g transform="translate(-207.921 -2384.525)">
            <path fill="#ed1c24" stroke="#f1f2f2" d="M208.421 2425.9a2.5 2.5 0 0 1 1.877-1.851 1.9 1.9 0 0 1 1.791.472q1.465 1.355 2.907 2.736c.688.656 1.349 1.341 2.054 1.978a4.265 4.265 0 0 0 .86.477 4.952 4.952 0 0 0 .311-.991c.132-1.286.175-2.581.335-3.862a42.245 42.245 0 0 1 3.417-11.893 46.01 46.01 0 0 1 24.765-24.389 43.514 43.514 0 0 1 14.563-3.46 5.28 5.28 0 0 0 .556-.093h4.11c1.133.109 2.267.21 3.4.329a44.778 44.778 0 0 1 20.81 7.647 45.9 45.9 0 0 1 17.072 21.1 9.361 9.361 0 0 1 .616 2.181 2.24 2.24 0 0 1-1.592 2.3 2.29 2.29 0 0 1-2.562-.75 6.886 6.886 0 0 1-.767-1.456 40.418 40.418 0 0 0-10.28-15.167 41.632 41.632 0 0 0-23-10.951 39.413 39.413 0 0 0-11.151.115 40.547 40.547 0 0 0-25.753 14.251 41.025 41.025 0 0 0-9.344 20.734c-.22 1.445-.272 2.915-.4 4.373-.01.11 0 .221 0 .462.219-.206.362-.339.5-.475 1.725-1.663 3.456-3.321 5.173-4.994a2.122 2.122 0 0 1 2.6-.489 2.3 2.3 0 0 1 1.31 2.341 2.127 2.127 0 0 1-.482 1.226 61.805 61.805 0 0 1-3.009 3.2 407.024 407.024 0 0 1-6.626 6.448c-1.591 1.506-2.233 1.522-3.875.042-1.694-1.528-3.317-3.137-4.947-4.734s-3.205-3.2-4.809-4.8a5.424 5.424 0 0 0-.432-.351z"/>
            <path fill="#ed1c24" stroke="#f1f2f2" d="M305.53 2432.383c-1.383 1.414-2.756 2.837-4.155 4.236a15.994 15.994 0 0 1-1.668 1.469 2.138 2.138 0 0 1-2.9-.208 2.3 2.3 0 0 1-.211-3.061c1.456-1.6 2.96-3.17 4.487-4.708 1.782-1.8 3.6-3.558 5.425-5.31a2.128 2.128 0 0 1 3.251-.092c1.943 1.793 3.824 3.653 5.7 5.515 1.363 1.353 2.677 2.757 4.017 4.134a2.4 2.4 0 0 1 .745 2.421 2.252 2.252 0 0 1-3.667 1.23c-1.426-1.4-2.877-2.772-4.322-4.151a9.777 9.777 0 0 0-.907-.781c-.156-.116-.448-.264-.543-.2a.842.842 0 0 0-.262.573c-.1 1.1-.117 2.2-.244 3.3a45 45 0 0 1-10.317 24.014 46.008 46.008 0 0 1-24.04 15.312 42.422 42.422 0 0 1-16.011 1.21c-15.4-1.792-27.208-9.336-35.357-22.534a37.281 37.281 0 0 1-3.619-7.853 2.244 2.244 0 0 1 1.3-2.809 2.141 2.141 0 0 1 2.812.755 12.583 12.583 0 0 1 1.049 2.079 41.417 41.417 0 0 0 13.27 17.251 39.892 39.892 0 0 0 20.869 8.274 41.368 41.368 0 0 0 43.309-27.907 37.447 37.447 0 0 0 2.156-11.5v-.554z"/>
            <path fill="#ed1c24" stroke="#f1f2f2" d="M266.881 2414q0 7.848-.009 15.7a1.222 1.222 0 0 0 .39.946q6.144 6.205 12.265 12.432c.505.515.955 1.085 1.434 1.626a1.734 1.734 0 0 1 .209 2.116 3.41 3.41 0 0 1-.907 1.069 1.843 1.843 0 0 1-2.588-.089c-1.306-1.163-2.6-2.34-3.841-3.577-3.523-3.525-6.989-7.106-10.529-10.614a4.3 4.3 0 0 1-1.352-3.285q.042-16.236.03-32.472a2.8 2.8 0 0 1 .791-2.4 2.242 2.242 0 0 1 2.213-.554 1.922 1.922 0 0 1 1.6 1.769c.073 1.176.213 2.351.22 3.527.026 4.6.011 9.207.011 13.81z"/>
        </g>
    </symbol>
    <symbol id="foot" viewBox="0 0 99.496 101.099">
        <g transform="translate(-217.807 -2639.712)">
            <path fill="#ed1c24" d="M220.807 2692.53c.151-1 .27-2 .459-3a41.422 41.422 0 0 1 3.153-9.336 43.042 43.042 0 0 0 2.981-8.117 41.031 41.031 0 0 0 .972-9.058c.023-6.952.009-13.9.017-20.856a3.437 3.437 0 0 1 .1-1 1.769 1.769 0 0 1 1.989-1.206 1.8 1.8 0 0 1 1.513 1.665c.005.067.008.135.008.2q-.006 10.962-.018 21.922a40.356 40.356 0 0 1-4.113 17.668 34.811 34.811 0 0 0-3.16 9.539 14.547 14.547 0 0 0 .094 6.043c.965 3.742 3.573 5.75 7.165 6.683a3.64 3.64 0 0 0 .9.1q36.18.006 72.362 0a13.765 13.765 0 0 0 7.568-1.909 7.416 7.416 0 0 0 3.791-6.781 6.722 6.722 0 0 0-.476-1.894 1.01 1.01 0 0 0-1.071-.668 94.916 94.916 0 0 1-15.821-1.626 50.907 50.907 0 0 1-10.648-3.55 89.968 89.968 0 0 1-20.568-12.184 43.9 43.9 0 0 1-6.775-6.688 15.717 15.717 0 0 1-3.292-7.626 87.906 87.906 0 0 1-.794-14.114c.009-1.725.058-3.45.1-5.175a1.819 1.819 0 1 1 3.635.044c-.022 2.723-.1 5.446-.084 8.169a72.29 72.29 0 0 0 .771 10.765 12.85 12.85 0 0 0 3.108 6.432 44.33 44.33 0 0 0 7.955 7.2 87.738 87.738 0 0 0 22.957 12 41.685 41.685 0 0 0 9.659 1.976c3.414.325 6.84.529 10.263.761a4.522 4.522 0 0 1 4.016 2.962 9.38 9.38 0 0 1-.13 7.731 12.131 12.131 0 0 1-7.353 6.63 18.971 18.971 0 0 1-5.7 1.134c-.2.011-.4.055-.6.084h-73.566a61.518 61.518 0 0 0-.823-.2c-5.144-1.244-8.687-4.208-10.085-9.443-.22-.827-.309-1.689-.459-2.534z" transform="translate(-3)"/>
            <path fill="#ed1c24" d="M248.525 2688.687a19.074 19.074 0 0 1-6.137-1.033 9.28 9.28 0 0 1-6.241-7.594 20.337 20.337 0 0 1 1.473-10.815 1.767 1.767 0 0 1 2.362-.967 1.789 1.789 0 0 1 .968 2.361 18.578 18.578 0 0 0-1.295 5.4 15.814 15.814 0 0 0 .088 3.433c.445 2.914 2.328 4.5 5.1 5.136a19.721 19.721 0 0 0 6.658.159c.454-.051.9-.139 1.359-.157a1.771 1.771 0 0 1 1.845 1.531 1.721 1.721 0 0 1-1.4 2.031c-1.584.228-3.185.348-4.78.515z" transform="translate(-3)"/>
            <path fill="none" stroke="#ed1c24" stroke-width="3" d="M222.241 2739.568c.25-.75 40-30.25 84.75 0" transform="translate(-3)"/>
        </g>
    </symbol>
    <symbol id="power" viewBox="0 0 102.624 102.754">
        <g transform="translate(-964.398 -2614.969)">
            <path fill="#ed1c24" stroke="#fff" stroke-width="3" d="M1016.175 2616.47a50 50 0 0 1 23.925 6.688 3.051 3.051 0 0 1 1.331 4.351 3.084 3.084 0 0 1-4.359 1.039 42.914 42.914 0 0 0-16-5.32 41.942 41.942 0 0 0-31 8.065c-12.676 9.449-18.657 22.3-17.729 38.065a43.437 43.437 0 0 0 86.149 4.3 42.51 42.51 0 0 0-4.414-27.549c-.284-.544-.594-1.077-.828-1.642a3.022 3.022 0 0 1 1.365-3.934 2.963 2.963 0 0 1 4.029 1.056 37.245 37.245 0 0 1 2.011 3.79 49.653 49.653 0 1 1-55.127-27.638c3.492-.709 7.096-.86 10.647-1.271z"/>
            <path fill="#ed1c24" stroke="#fff" stroke-width="3" d="M1003.835 2692.239l6.316-22.712h-9c.15-.4.241-.68.358-.949q4.844-11.146 9.686-22.294c.233-.539.469-.873 1.166-.87 6.445.03 12.89.017 19.335.02.222 0 .444.04.817.075l-12.161 18.75h9.622L1004 2692.346z"/>
        </g>
    </symbol>
    <symbol id="universally" viewBox="0 0 100.302 100.195">
        <g id="Group_30" data-name="Group 30" transform="translate(-213.866 -2894.537)">
            <path fill="#ed1c24" stroke="#fff" stroke-width="3" d="M237.491 2911.064l.048.055a3.689 3.689 0 0 1-.085 4.977 40.082 40.082 0 0 0-11.449 31.24A39.666 39.666 0 0 0 239.276 2975a41.128 41.128 0 0 0 57.362-1.82 41.029 41.029 0 0 0-.035-57.058 3.689 3.689 0 0 1-.093-5l.063-.071a3.7 3.7 0 0 1 5.43-.113 48.6 48.6 0 1 1-69.932-.012 3.693 3.693 0 0 1 5.42.138z"/>
            <path fill="#ed1c24" stroke="#fff" stroke-width="3" d="M243.619 2928.768l.05-.054a3.686 3.686 0 0 1 5.212-.228l14.393 13.213v-41.976a3.686 3.686 0 0 1 3.686-3.686h.089a3.686 3.686 0 0 1 3.686 3.686v41.884l.085.038 14.321-13.168a3.684 3.684 0 0 1 5.2.209l.074.079a3.686 3.686 0 0 1-.21 5.217l-23.186 21.331-23.176-21.345a3.687 3.687 0 0 1-.224-5.2z"/>
        </g>
    </symbol>
    <symbol id="point" viewBox="0 0 264.973 343.212">
        <g transform="translate(-1295.848 -338.984)">
            <path fill="#e22929" d="M1426.655 338.984c64.728 0 119.925 45.319 131.659 106.881 6.932 36.37-.631 69.913-21.23 100.256-12.585 18.539-26.552 36.148-40.053 54.057q-28.758 38.15-57.754 76.119c-5.974 7.849-15.831 7.842-21.886.116-.849-1.082-1.671-2.186-2.5-3.283-30.692-40.6-61.562-81.065-92-121.856-13.867-18.584-22.96-39.523-25.871-62.663-4.711-37.44 4.738-71.2 28.494-100.529 21.84-26.966 50.33-42.715 84.661-47.846 2.091-.313 4.2-.564 6.305-.706 3.906-.263 7.82-.423 10.175-.546zm1.585 318.824c1.088-1.37 1.886-2.335 2.642-3.332 16.257-21.407 32.571-42.772 48.742-64.244 13.75-18.258 27.907-36.247 40.846-55.069 16.6-24.144 23.559-51.009 19.16-80.405-8.223-54.948-56.056-96.3-111.485-95.824-35.673.307-65.151 14.49-87.555 42.183-20.381 25.194-28.264 54.265-23.615 86.448 3.037 21.024 12.3 39.423 24.944 56.218q32.267 42.87 64.705 85.611c7.076 9.357 14.207 18.678 21.616 28.414z" />
            <path fill="#e22929" d="M1506.962 471.839c0 43.293-35.405 78.416-79.021 78.4-43.549-.02-78.376-35.446-78.361-79.708.015-42.561 35.667-77.772 78.717-77.742a78.648 78.648 0 0 1 78.665 79.05z" />
        </g>
    </symbol>
    <symbol id="shadow" viewBox="0 0 550.398 389.293">
        <g transform="translate(-1153.135 -546.296)">
            <path fill="#878787" opacity="0.28" d="M1520.423 756.219c0 16.219-41.433 29.378-92.476 29.37-50.963-.007-91.719-13.279-91.7-29.861.017-15.945 41.74-29.137 92.119-29.125 51.072.011 92.058 13.197 92.057 29.616z" />
            <path fill="#878787" opacity="0.04" d="M1553.533 736.561c0 22.051-56.33 39.941-125.725 39.93-69.286-.01-124.7-18.054-124.673-40.6.023-21.678 56.747-39.612 125.24-39.6 69.437.021 125.16 17.948 125.158 40.27z" />
            <path fill="#878787" opacity="0.28" d="M1467.09 748.858c0 6.826-17.437 12.363-38.919 12.36-21.447 0-38.6-5.588-38.592-12.567.007-6.711 17.566-12.262 38.768-12.257 21.494.006 38.743 5.554 38.743 12.464z" />
        </g>
    </symbol>
</svg>